<?xml version="1.0" encoding="UTF-8"?>
<!DOCTYPE svg PUBLIC "-//W3C//DTD SVG 1.1//EN" "http://www.w3.org/Graphics/SVG/1.1/DTD/svg11.dtd">
<!-- Creator: CorelDRAW 2020 (64-Bit) -->
<svg xmlns="http://www.w3.org/2000/svg" xml:space="preserve" width="92.2541mm" height="38.2506mm" version="1.1" style="shape-rendering:geometricPrecision; text-rendering:geometricPrecision; image-rendering:optimizeQuality; fill-rule:evenodd; clip-rule:evenodd"
viewBox="0 0 4081.86 1692.43"
 xmlns:xlink="http://www.w3.org/1999/xlink"
 xmlns:xodm="http://www.corel.com/coreldraw/odm/2003">
 <defs>
  <style type="text/css">
   <![CDATA[
    .fil1 {fill:#AF2F33;fill-rule:nonzero}
    .fil0 {fill:#8B8D90;fill-rule:nonzero}
    .fil2 {fill:url(#id0)}
   ]]>
  </style>
  <linearGradient id="id0" gradientUnits="userSpaceOnUse" x1="3336.29" y1="1417.7" x2="3336.29" y2="5.8">
   <stop offset="0" style="stop-opacity:1; stop-color:#538DBF"/>
   <stop offset="1" style="stop-opacity:1; stop-color:#0E57A0"/>
  </linearGradient>
 </defs>
 <g id="Capa_x0020_1">
  <metadata id="CorelCorpID_0Corel-Layer"/>
  <path class="fil0" d="M16.51 1657.72c3.62,5.45 8.26,9.44 13.91,12.02 5.64,2.59 11.46,3.89 17.45,3.89 3.36,0 6.76,-0.53 10.26,-1.59 3.46,-1.03 6.65,-2.61 9.51,-4.7 2.85,-2.09 5.19,-4.67 7.01,-7.74 1.79,-3.06 2.71,-6.6 2.71,-10.65 0,-5.71 -1.81,-10.08 -5.43,-13.07 -3.64,-3.01 -8.13,-5.51 -13.49,-7.54 -5.37,-2.03 -11.23,-3.98 -17.56,-5.85 -6.35,-1.88 -12.21,-4.5 -17.56,-7.85 -5.37,-3.34 -9.86,-7.84 -13.5,-13.49 -3.62,-5.63 -5.43,-13.27 -5.43,-22.88 0,-4.32 0.95,-8.93 2.83,-13.8 1.87,-4.88 4.84,-9.34 8.88,-13.39 4.04,-4.04 9.24,-7.42 15.58,-10.13 6.34,-2.71 13.98,-4.09 22.9,-4.09 8.08,0 15.81,1.12 23.21,3.36 7.38,2.23 13.86,6.76 19.43,13.59l-16.31 14.83c-2.5,-3.89 -6.06,-7.03 -10.65,-9.4 -4.62,-2.37 -9.83,-3.56 -15.69,-3.56 -5.57,0 -10.23,0.73 -13.91,2.2 -3.7,1.45 -6.65,3.34 -8.88,5.65 -2.23,2.3 -3.81,4.76 -4.71,7.42 -0.91,2.65 -1.36,5.1 -1.36,7.32 0,6.27 1.81,11.08 5.43,14.42 3.64,3.34 8.13,6.07 13.5,8.15 5.35,2.11 11.23,3.98 17.56,5.65 6.34,1.69 12.19,4.01 17.56,7.01 5.37,3 9.86,7.04 13.49,12.13 3.62,5.09 5.43,12.1 5.43,21.01 0,7.12 -1.36,13.52 -4.07,19.23 -2.72,5.71 -6.37,10.52 -10.99,14.44 -4.59,3.9 -10.02,6.9 -16.3,8.98 -6.26,2.09 -12.97,3.15 -20.07,3.15 -9.47,0 -18.46,-1.67 -26.97,-5.02 -8.5,-3.36 -15.26,-8.51 -20.27,-15.47l16.51 -14.22z"/>
  <path class="fil0" d="M246.5 1673.62c8.49,0 16.17,-1.58 23.01,-4.72 6.82,-3.14 12.67,-7.35 17.56,-12.64 4.89,-5.31 8.63,-11.55 11.29,-18.73 2.65,-7.17 3.98,-14.8 3.98,-22.88 0,-8.09 -1.33,-15.7 -3.98,-22.88 -2.65,-7.19 -6.4,-13.42 -11.29,-18.73 -4.88,-5.29 -10.74,-9.51 -17.56,-12.65 -6.84,-3.14 -14.52,-4.71 -23.01,-4.71 -8.51,0 -16.17,1.58 -22.99,4.71 -6.84,3.14 -12.69,7.35 -17.57,12.65 -4.87,5.31 -8.63,11.53 -11.29,18.73 -2.64,7.18 -3.98,14.8 -3.98,22.88 0,8.08 1.34,15.72 3.98,22.88 2.65,7.18 6.42,13.42 11.29,18.73 4.88,5.29 10.74,9.5 17.57,12.64 6.82,3.14 14.49,4.72 22.99,4.72zm0 18.81c-11.3,0 -21.68,-1.98 -31.16,-5.96 -9.47,-3.98 -17.61,-9.44 -24.35,-16.42 -6.76,-6.96 -12.07,-15.19 -15.91,-24.66 -3.82,-9.47 -5.73,-19.73 -5.73,-30.73 0,-11 1.91,-21.26 5.73,-30.73 3.84,-9.48 9.15,-17.7 15.91,-24.66 6.74,-6.98 14.88,-12.46 24.35,-16.42 9.48,-3.98 19.86,-5.96 31.16,-5.96 11.28,0 21.66,1.98 31.15,5.96 9.49,3.97 17.59,9.45 24.37,16.42 6.76,6.96 12.05,15.19 15.88,24.66 3.84,9.47 5.76,19.73 5.76,30.73 0,11 -1.92,21.26 -5.76,30.73 -3.82,9.47 -9.11,17.7 -15.88,24.66 -6.77,6.98 -14.88,12.44 -24.37,16.42 -9.49,3.98 -19.87,5.96 -31.15,5.96z"/>
  <polygon class="fil0" points="402.69,1540.63 422.76,1540.63 422.76,1669.85 490.71,1669.85 490.71,1688.65 402.69,1688.65 "/>
  <path class="fil0" d="M578.73 1540.63l0 90.73c0,4.61 0.64,9.38 1.89,14.33 1.25,4.95 3.32,9.51 6.26,13.69 2.93,4.19 6.77,7.6 11.5,10.24 4.75,2.65 10.58,4 17.57,4 6.96,0 12.82,-1.35 17.56,-4 4.73,-2.64 8.57,-6.05 11.49,-10.24 2.93,-4.18 5.03,-8.74 6.27,-13.69 1.25,-4.95 1.89,-9.72 1.89,-14.33l0 -90.73 20.07 0 0 93.87c0,8.65 -1.48,16.48 -4.4,23.52 -2.92,7.04 -6.96,13.15 -12.11,18.3 -5.17,5.15 -11.24,9.13 -18.2,11.92 -6.96,2.78 -14.5,4.18 -22.57,4.18 -8.1,0 -15.62,-1.4 -22.58,-4.18 -6.98,-2.79 -13.05,-6.77 -18.2,-11.92 -5.15,-5.15 -9.19,-11.26 -12.13,-18.3 -2.92,-7.04 -4.38,-14.88 -4.38,-23.52l0 -93.87 20.07 0z"/>
  <path class="fil0" d="M861.83 1572.62c-4.19,-5.43 -9.49,-9.62 -15.91,-12.55 -6.4,-2.92 -13.03,-4.38 -19.85,-4.38 -8.35,0 -15.92,1.58 -22.7,4.71 -6.76,3.14 -12.53,7.42 -17.34,12.86 -4.81,5.43 -8.54,11.8 -11.19,19.12 -2.64,7.32 -3.98,15.15 -3.98,23.52 0,7.8 1.27,15.2 3.78,22.17 2.51,6.97 6.13,13.11 10.86,18.4 4.74,5.29 10.53,9.47 17.37,12.53 6.82,3.08 14.55,4.62 23.2,4.62 8.5,0 15.96,-1.77 22.38,-5.23 6.4,-3.5 11.83,-8.38 16.3,-14.64l16.94 12.75c-1.11,1.53 -3.06,3.73 -5.85,6.59 -2.78,2.85 -6.48,5.71 -11.08,8.55 -4.59,2.87 -10.13,5.38 -16.61,7.54 -6.5,2.15 -13.99,3.25 -22.48,3.25 -11.73,0 -22.29,-2.23 -31.69,-6.7 -9.41,-4.46 -17.42,-10.32 -24.03,-17.56 -6.64,-7.24 -11.68,-15.44 -15.17,-24.57 -3.48,-9.13 -5.22,-18.36 -5.22,-27.71 0,-11.42 1.88,-21.98 5.64,-31.67 3.76,-9.68 9.02,-18.06 15.8,-25.08 6.76,-7.04 14.88,-12.53 24.35,-16.42 9.48,-3.9 19.93,-5.87 31.36,-5.87 9.77,0 19.34,1.91 28.75,5.65 9.41,3.78 17.11,9.55 23.1,17.36l-16.72 12.76z"/>
  <polygon class="fil0" points="956.13,1540.63 976.2,1540.63 976.2,1688.65 956.13,1688.65 "/>
  <path class="fil0" d="M1132.37 1673.62c8.51,0 16.17,-1.58 23.01,-4.72 6.82,-3.14 12.67,-7.35 17.56,-12.64 4.88,-5.31 8.63,-11.55 11.28,-18.73 2.65,-7.17 3.98,-14.8 3.98,-22.88 0,-8.09 -1.33,-15.7 -3.98,-22.88 -2.65,-7.19 -6.4,-13.42 -11.28,-18.73 -4.89,-5.29 -10.74,-9.51 -17.56,-12.65 -6.84,-3.14 -14.5,-4.71 -23.01,-4.71 -8.49,0 -16.17,1.58 -22.99,4.71 -6.84,3.14 -12.69,7.35 -17.58,12.65 -4.87,5.31 -8.63,11.53 -11.28,18.73 -2.64,7.18 -3.96,14.8 -3.96,22.88 0,8.08 1.32,15.72 3.96,22.88 2.65,7.18 6.42,13.42 11.28,18.73 4.88,5.29 10.74,9.5 17.58,12.64 6.82,3.14 14.5,4.72 22.99,4.72zm0 18.81c-11.29,0 -21.67,-1.98 -31.16,-5.96 -9.47,-3.98 -17.59,-9.44 -24.35,-16.42 -6.76,-6.96 -12.07,-15.19 -15.89,-24.66 -3.84,-9.47 -5.74,-19.73 -5.74,-30.73 0,-11 1.9,-21.26 5.74,-30.73 3.82,-9.48 9.13,-17.7 15.89,-24.66 6.76,-6.98 14.88,-12.46 24.35,-16.42 9.49,-3.98 19.87,-5.96 31.16,-5.96 11.3,0 21.68,1.98 31.17,5.96 9.47,3.97 17.59,9.45 24.35,16.42 6.76,6.96 12.05,15.19 15.89,24.66 3.82,9.47 5.74,19.73 5.74,30.73 0,11 -1.92,21.26 -5.74,30.73 -3.84,9.47 -9.13,17.7 -15.89,24.66 -6.76,6.98 -14.88,12.44 -24.35,16.42 -9.49,3.98 -19.87,5.96 -31.17,5.96z"/>
  <polygon class="fil0" points="1288.56,1540.63 1314.89,1540.63 1396.45,1662.32 1396.87,1662.32 1396.87,1540.63 1416.94,1540.63 1416.94,1688.65 1391.42,1688.65 1309.05,1566.97 1308.63,1566.97 1308.63,1688.65 1288.56,1688.65 "/>
  <polygon class="fil0" points="1505.15,1540.63 1600.7,1540.63 1600.7,1559.44 1525.23,1559.44 1525.23,1603.57 1595.47,1603.57 1595.47,1622.38 1525.23,1622.38 1525.23,1669.85 1604.46,1669.85 1604.46,1688.65 1505.15,1688.65 "/>
  <path class="fil0" d="M1687.47 1657.72c3.62,5.45 8.26,9.44 13.91,12.02 5.63,2.59 11.46,3.89 17.45,3.89 3.34,0 6.76,-0.53 10.25,-1.59 3.47,-1.03 6.65,-2.61 9.51,-4.7 2.85,-2.09 5.18,-4.67 7.01,-7.74 1.79,-3.06 2.72,-6.6 2.72,-10.65 0,-5.71 -1.81,-10.08 -5.43,-13.07 -3.64,-3.01 -8.13,-5.51 -13.49,-7.54 -5.37,-2.03 -11.23,-3.98 -17.56,-5.85 -6.35,-1.88 -12.22,-4.5 -17.56,-7.85 -5.37,-3.34 -9.88,-7.84 -13.5,-13.49 -3.64,-5.63 -5.43,-13.27 -5.43,-22.88 0,-4.32 0.95,-8.93 2.83,-13.8 1.87,-4.88 4.84,-9.34 8.88,-13.39 4.04,-4.04 9.24,-7.42 15.58,-10.13 6.34,-2.71 13.99,-4.09 22.9,-4.09 8.08,0 15.81,1.12 23.21,3.36 7.38,2.23 13.86,6.76 19.43,13.59l-16.31 14.83c-2.51,-3.89 -6.05,-7.03 -10.66,-9.4 -4.61,-2.37 -9.82,-3.56 -15.67,-3.56 -5.57,0 -10.23,0.73 -13.91,2.2 -3.7,1.45 -6.67,3.34 -8.88,5.65 -2.23,2.3 -3.81,4.76 -4.71,7.42 -0.91,2.65 -1.36,5.1 -1.36,7.32 0,6.27 1.81,11.08 5.43,14.42 3.64,3.34 8.13,6.07 13.5,8.15 5.35,2.11 11.23,3.98 17.56,5.65 6.34,1.69 12.19,4.01 17.56,7.01 5.37,3 9.86,7.04 13.49,12.13 3.62,5.09 5.43,12.1 5.43,21.01 0,7.12 -1.36,13.52 -4.08,19.23 -2.72,5.71 -6.38,10.52 -10.99,14.44 -4.59,3.9 -10.03,6.9 -16.3,8.98 -6.27,2.09 -12.97,3.15 -20.07,3.15 -9.47,0 -18.46,-1.67 -26.97,-5.02 -8.5,-3.36 -15.26,-8.51 -20.27,-15.47l16.51 -14.22z"/>
  <path class="fil0" d="M1974.54 1669.84l25.3 0c8.5,0 16.54,-1.14 24.14,-3.45 7.58,-2.31 14.25,-5.74 19.96,-10.34 5.71,-4.61 10.26,-10.35 13.6,-17.25 3.34,-6.91 5.01,-14.94 5.01,-24.16 0,-4.73 -0.77,-10.27 -2.29,-16.61 -1.53,-6.34 -4.43,-12.36 -8.68,-18.09 -4.24,-5.7 -10.15,-10.57 -17.67,-14.53 -7.53,-3.96 -17.28,-5.96 -29.27,-5.96l-30.11 0 0 110.4zm-20.07 -129.21l51.63 0c10.46,0 19.64,1.17 27.5,3.56 7.88,2.38 14.72,5.53 20.49,9.51 5.77,3.96 10.58,8.54 14.42,13.7 3.84,5.15 6.87,10.44 9.1,15.89 2.23,5.43 3.83,10.86 4.81,16.31 0.98,5.42 1.45,10.44 1.45,15.03 0,9.49 -1.73,18.65 -5.23,27.5 -3.46,8.85 -8.63,16.73 -15.45,23.63 -6.84,6.9 -15.3,12.44 -25.41,16.62 -10.1,4.19 -21.78,6.28 -35.01,6.28l-48.31 0 0 -148.04z"/>
  <polygon class="fil0" points="2162.93,1540.63 2258.47,1540.63 2258.47,1559.44 2183,1559.44 2183,1603.57 2253.24,1603.57 2253.24,1622.38 2183,1622.38 2183,1669.85 2262.23,1669.85 2262.23,1688.65 2162.93,1688.65 "/>
  <polygon class="fil0" points="2449.15,1540.63 2469.22,1540.63 2469.22,1688.65 2449.15,1688.65 "/>
  <polygon class="fil0" points="2557.46,1540.63 2583.8,1540.63 2665.35,1662.32 2665.76,1662.32 2665.76,1540.63 2685.83,1540.63 2685.83,1688.65 2660.32,1688.65 2577.94,1566.97 2577.54,1566.97 2577.54,1688.65 2557.46,1688.65 "/>
  <path class="fil0" d="M2900.14 1605.86l0 72.97c-3.61,2.23 -7.73,4.18 -12.33,5.85 -4.59,1.69 -9.38,3.11 -14.33,4.29 -4.93,1.17 -9.96,2.06 -15.04,2.62 -5.09,0.53 -9.87,0.83 -14.31,0.83 -12.57,0 -23.74,-2.09 -33.56,-6.27 -9.84,-4.18 -18.14,-9.82 -24.88,-16.93 -6.78,-7.11 -11.93,-15.36 -15.49,-24.77 -3.56,-9.41 -5.32,-19.35 -5.32,-29.81 0,-10.99 1.92,-21.24 5.74,-30.72 3.83,-9.49 9.13,-17.7 15.89,-24.66 6.76,-6.99 14.87,-12.46 24.36,-16.43 9.48,-3.96 19.86,-5.95 31.14,-5.95 13.68,0 24.82,1.72 33.47,5.12 8.63,3.42 15.89,8.11 21.74,14.11l-14.22 15.26c-6.15,-5.85 -12.61,-9.93 -19.45,-12.22 -6.84,-2.31 -14.02,-3.46 -21.54,-3.46 -8.49,0 -16.15,1.58 -22.99,4.71 -6.84,3.14 -12.68,7.35 -17.56,12.64 -4.88,5.31 -8.65,11.53 -11.3,18.73 -2.64,7.18 -3.96,14.8 -3.96,22.87 0,8.38 1.47,16.15 4.38,23.32 2.93,7.18 6.98,13.42 12.13,18.72 5.15,5.31 11.23,9.46 18.2,12.46 6.96,2.98 14.56,4.5 22.79,4.5 7.1,0 13.83,-0.67 20.17,-2 6.35,-1.33 11.76,-3.23 16.2,-5.74l0 -41.19 -32.83 0 0 -18.83 52.9 0z"/>
  <polygon class="fil0" points="2986.92,1540.63 3082.46,1540.63 3082.46,1559.44 3006.99,1559.44 3006.99,1603.57 3077.23,1603.57 3077.23,1622.38 3006.99,1622.38 3006.99,1669.85 3086.22,1669.85 3086.22,1688.65 2986.92,1688.65 "/>
  <polygon class="fil0" points="3164.84,1540.63 3191.18,1540.63 3272.73,1662.32 3273.15,1662.32 3273.15,1540.63 3293.22,1540.63 3293.22,1688.65 3267.7,1688.65 3185.34,1566.97 3184.91,1566.97 3184.91,1688.65 3164.84,1688.65 "/>
  <polygon class="fil0" points="3381.45,1540.63 3401.53,1540.63 3401.53,1688.65 3381.45,1688.65 "/>
  <polygon class="fil0" points="3489.75,1540.63 3585.3,1540.63 3585.3,1559.44 3509.83,1559.44 3509.83,1603.57 3580.07,1603.57 3580.07,1622.38 3509.83,1622.38 3509.83,1669.85 3589.06,1669.85 3589.06,1688.65 3489.75,1688.65 "/>
  <path class="fil0" d="M3687.76 1605.86l26.33 0c3.9,0 7.77,-0.31 11.61,-0.93 3.82,-0.64 7.24,-1.78 10.24,-3.45 3,-1.69 5.42,-4.08 7.21,-7.21 1.81,-3.14 2.73,-7.23 2.73,-12.22 0,-5.04 -0.92,-9.11 -2.73,-12.25 -1.8,-3.12 -4.22,-5.54 -7.21,-7.2 -3,-1.69 -6.42,-2.84 -10.24,-3.45 -3.84,-0.64 -7.71,-0.95 -11.61,-0.95l-26.33 0 0 47.67zm-20.07 -65.23l52.06 0c9.47,0 17.28,1.3 23.41,3.87 6.13,2.58 10.97,5.85 14.53,9.83 3.56,3.96 6.04,8.43 7.43,13.36 1.38,4.96 2.09,9.73 2.09,14.34 0,4.73 -0.83,9.3 -2.51,13.69 -1.67,4.38 -4.08,8.37 -7.21,11.91 -3.14,3.56 -6.98,6.55 -11.5,8.99 -4.54,2.45 -9.58,3.95 -15.15,4.5l42.02 67.54 -25.09 0 -37.63 -65.23 -22.37 0 0 65.23 -20.07 0 0 -148.03z"/>
  <polygon class="fil0" points="3845.59,1540.63 3865.66,1540.63 3865.66,1688.65 3845.59,1688.65 "/>
  <path class="fil0" d="M4036.26 1634.51l-27.6 -67.96 -0.4 0 -28.02 67.96 56.02 0zm-35.95 -93.87l18.19 0 63.36 148.02 -23.43 0 -14.84 -36.59 -70.44 0 -14.64 36.59 -23.43 0 65.24 -148.02z"/>
  <path class="fil1" d="M1209.87 1054.17c4.62,0 9.07,-0.67 13.39,-1.7l-214.54 -591.11 0 237.6c44.21,6.53 78.26,44.6 78.26,90.58 0,50.56 -41.13,91.69 -91.67,91.69 -50.56,0 -91.67,-41.13 -91.67,-91.69 0,-45.98 34.06,-84.05 78.26,-90.58l0 -253.59c0,-12.8 2.94,-24.9 8.03,-35.78l-130.12 -358.48 -125.54 0c-37.96,0 -68.85,30.87 -68.85,68.84l0 1075.28 244.97 0 0 -63.28c0,-42.88 34.89,-77.78 77.78,-77.78l221.71 0zm22.6 23.68c-7.21,2 -14.76,3.15 -22.6,3.15l-221.71 0c-28.11,0 -50.96,22.85 -50.96,50.95l0 63.28 60.61 0 84.6 232.68 277.12 0 -127.06 -350.06zm-498.21 -1053.56l115.8 0 -8.82 -24.29 -277.11 0 -184.23 503.47 50.38 0c27.11,0 49.17,22.05 49.17,49.17l0 642.59 159.15 0 0 -1075.28c0,-52.75 42.89,-95.66 95.65,-95.66zm247.63 701.83c-29.34,6.19 -51.44,32.26 -51.44,63.42 0,35.76 29.08,64.87 64.86,64.87 35.76,0 64.87,-29.11 64.87,-64.87 0,-31.15 -22.12,-57.22 -51.46,-63.42l0 8.9 -26.82 0 0 -8.9zm-766.65 537.37c0,35.76 29.1,64.86 64.86,64.86 35.76,0 64.86,-29.1 64.86,-64.86 0,-31.16 -22.1,-57.22 -51.46,-63.44l0 3.42 -26.8 0 0 -3.42c-29.35,6.21 -51.45,32.28 -51.45,63.44zm215.04 -733.2l-60.19 0 -104.2 284.76c16.64,11.46 27.6,30.61 27.6,52.29l0 305.56c44.22,6.53 78.28,44.61 78.28,90.6 0,50.56 -41.13,91.67 -91.67,91.67 -50.56,0 -91.67,-41.11 -91.67,-91.67 0,-45.98 34.06,-84.07 78.27,-90.6l0 -305.56c0,-9.99 -4.04,-19.03 -10.54,-25.66l-214.53 586.24 277.12 0 84.62 -232.68 49.28 0 0 -642.59c0,-12.33 -10.03,-22.35 -22.35,-22.35z"/>
  <path class="fil1" d="M1908.76 195.52c35.78,0 64.86,-29.1 64.86,-64.86 0,-35.76 -29.08,-64.87 -64.86,-64.87 -35.77,0 -64.87,29.11 -64.87,64.87 0,35.76 29.1,64.86 64.87,64.86zm531.97 936.43l0 125.64c24.71,-31.3 45.27,-65.79 61.45,-103.63 10.07,-23.57 17.83,-47.92 23.54,-72.96l-34.03 0c-28.1,0 -50.97,22.84 -50.97,50.95zm84.95 -254.75c-8.49,2.59 -17.5,4.03 -26.84,4.03 -50.54,0 -91.66,-41.14 -91.66,-91.69 0,-32.41 16.94,-60.86 42.37,-77.17 -38.93,-52.81 -87.23,-95.06 -145.24,-126.37 32.43,-57.82 48.67,-121.28 48.67,-190.4 0,-55.01 -10.22,-106.47 -30.61,-154.42 -20.43,-47.94 -48.56,-89.93 -84.41,-125.89 -15.61,-15.62 -32.41,-29.7 -50.26,-42.39 -11.58,12.31 -18.73,28.84 -18.73,47.04l0 1301.07c32.73,-5.73 64.31,-14.97 94.64,-27.99 54.17,-23.27 101.66,-55.33 142.48,-96.26 2.69,-2.7 5.23,-5.5 7.85,-8.24l0 -156.57c0,-42.88 34.89,-77.78 77.77,-77.78l39.27 0c3.95,-24.26 6.04,-49.14 6.04,-74.72 0,-35.4 -3.92,-69.44 -11.33,-102.25zm-567.36 -877.19l-508.63 0 0 117.25 368.5 0c6.52,-44.2 44.59,-78.28 90.58,-78.28 50.56,0 91.67,41.13 91.67,91.69 0,50.54 -41.11,91.67 -91.67,91.67 -45.98,0 -84.05,-34.06 -90.58,-78.26l-368.5 0 0 289.19c11.44,-5.13 24.08,-8.07 37.41,-8.07 45.98,0 84.05,34.06 90.58,78.28l356.15 0c27.13,0 49.17,22.06 49.17,49.15l0 875.29 106.41 0c17.92,0 35.48,-1.09 52.75,-3.03l0 -1304.94c0,-23.68 8.69,-45.33 22.98,-62.05 -16.7,-10.22 -34.26,-19.31 -52.75,-27.22 -47.86,-20.42 -99.19,-30.67 -154.06,-30.67zm-407.8 530.28l-2.88 0 0 -26.82 2.88 0c-6.19,-29.34 -32.26,-51.44 -63.42,-51.44 -13.96,0 -26.82,4.53 -37.41,12.05l0 105.61c10.6,7.53 23.46,12.05 37.41,12.05 31.15,0 57.22,-22.11 63.42,-51.45zm168.27 733.2c0,35.76 29.09,64.86 64.86,64.86 35.77,0 64.87,-29.1 64.87,-64.86 0,-31.17 -22.1,-57.24 -51.46,-63.44l0 3.42 -26.82 0 0 -3.42c-29.33,6.2 -51.44,32.26 -51.44,63.44zm780.05 -409.09c7.04,0 13.71,-1.41 20.06,-3.5 -10.52,-35.96 -25.52,-70.37 -45.35,-103.08 -2.78,-4.56 -5.76,-8.87 -8.65,-13.28 -18.48,11.44 -30.92,31.72 -30.92,55.01 0,35.76 29.1,64.86 64.86,64.86zm-565.01 -324.1l-356.15 0c-6.53,44.19 -44.6,78.26 -90.58,78.26 -13.33,0 -25.97,-2.92 -37.41,-8.07l0 203.37 283.89 0c34.99,0 63.47,28.47 63.47,63.48l0 305.56c44.21,6.53 78.26,44.61 78.26,90.59 0,50.56 -41.11,91.67 -91.67,91.67 -50.54,0 -91.66,-41.11 -91.66,-91.67 0,-45.98 34.06,-84.07 78.24,-90.59l0 -305.56c0,-20.21 -16.43,-36.66 -36.65,-36.66l-283.89 0 0 597.24 506.51 0 0 -875.29c0,-12.31 -10.03,-22.34 -22.37,-22.34z"/>
  <path class="fil2" d="M4040.2 1237.04l0 -1119.63c0,-61.65 -49.59,-111.6 -110.77,-111.6l-85.13 0c-37.17,0 -71.85,18.76 -92.36,49.95l0 0 -420.61 502.51 -410.7 -502.51c-20.53,-31.19 -55.19,-49.95 -92.36,-49.95l-85.12 0c-61.18,0 -110.79,49.95 -110.79,111.6l0 0 0 1119.63c0,99.77 80.29,180.67 179.35,180.67l0 0 144.65 0 0 -738.8 377.47 387.16 392.23 -387.16 0 738.8 134.83 0c99.04,0 179.31,-80.9 179.31,-180.67z"/>
 </g>
</svg>
