<svg xmlns="http://www.w3.org/2000/svg" fill="none" viewBox="0 0 232 79"><path fill="#1E1A1A" d="M86.39 17.53c0-.15.04-.28.13-.37.08-.09.2-.14.36-.14h10.85c.16 0 .28.05.37.14.09.09.13.22.13.38v2.71c0 .12-.04.24-.13.36s-.21.17-.38.17h-7.09v2.71h5.47c.14 0 .25.03.34.1.09.07.14.18.14.33v2.36c0 .1-.04.2-.12.3-.08.1-.2.14-.35.14h-5.48v2.8h7.35c.33 0 .49.17.49.5v2.75c0 .07-.03.14-.09.2-.03.2-.18.31-.45.31H86.87c-.15 0-.26-.04-.35-.11-.09-.07-.13-.19-.13-.36V17.53ZM102.8 28.95c.2.2.41.36.64.5.23.14.45.24.66.33.21.09.4.14.56.18.16.04.27.05.33.05.14 0 .32 0 .53-.02.21-.01.42-.04.62-.1.2-.05.37-.14.51-.27s.21-.3.21-.53c0-.2-.04-.37-.12-.49-.08-.12-.2-.22-.35-.31-.15-.08-.34-.16-.56-.22-.22-.06-.47-.14-.75-.23-.87-.23-1.6-.51-2.17-.84-.57-.33-1.02-.7-1.35-1.1-.33-.4-.56-.84-.69-1.31-.13-.47-.2-.96-.2-1.48 0-.61.12-1.16.36-1.65.24-.5.58-.92 1.03-1.27.44-.35.98-.63 1.6-.82.62-.19 1.31-.29 2.07-.29.46 0 .89.04 1.29.12.4.08.79.2 1.15.36.36.16.72.38 1.07.63.35.26.69.57 1.03.92.12.15.19.28.19.41 0 .13-.08.27-.25.41-.28.23-.56.46-.81.69-.26.23-.53.48-.81.76-.09.07-.17.12-.26.14-.09.02-.17.02-.25 0a.696.696 0 0 1-.23-.11.89.89 0 0 1-.2-.19c-.26-.28-.55-.48-.88-.57-.33-.09-.64-.15-.92-.15-.36 0-.64.06-.85.19-.21.12-.31.31-.3.57.01.19.09.34.21.44.12.1.28.19.47.26.19.07.38.12.59.16.21.04.4.09.57.14.66.21 1.26.44 1.81.69.55.25 1.02.55 1.42.91.4.36.71.79.94 1.3.22.5.34 1.12.34 1.84s-.15 1.37-.43 1.94c-.29.57-.68 1.05-1.19 1.43-.5.39-1.1.68-1.79.89-.69.2-1.43.31-2.23.31-.45 0-.91-.04-1.38-.12-.47-.08-.92-.21-1.36-.39-.44-.18-.85-.41-1.25-.69-.4-.28-.74-.62-1.05-1.02-.08-.1-.14-.21-.18-.32a.76.76 0 0 1-.05-.33c.01-.11.03-.21.07-.3.04-.09.11-.17.19-.24l1.41-1.41c.17-.15.33-.2.47-.15.14.05.31.17.52.37v-.02ZM113.67 19.51a.61.61 0 0 1 .3-.15c.11-.02.2-.03.3-.03h1.65c.14 0 .25.02.35.07.09.04.16.1.22.18.06.08.11.16.15.26.04.1.08.21.11.32l.46 1.32c.2-.26.41-.53.62-.8.21-.27.46-.52.74-.74.28-.22.62-.41 1.02-.55.4-.14.87-.22 1.44-.22 1 0 1.92.18 2.76.55.84.37 1.57.88 2.18 1.52.61.65 1.09 1.4 1.43 2.28.34.87.51 1.81.51 2.83s-.17 1.95-.51 2.82c-.34.87-.82 1.64-1.43 2.28-.61.65-1.33 1.15-2.18 1.53-.84.37-1.76.56-2.76.56-.48 0-.88-.06-1.23-.17-.35-.11-.65-.26-.91-.44-.27-.18-.5-.38-.7-.6-.21-.22-.41-.44-.6-.66v5.1c0 .22-.07.4-.2.56-.13.15-.34.23-.61.23h-2.5c-.09 0-.18-.02-.28-.05-.1-.04-.2-.09-.28-.15a.881.881 0 0 1-.22-.25.63.63 0 0 1-.09-.33V20.16c0-.15.03-.27.08-.36.05-.09.12-.18.2-.26l-.02-.03Zm10.22 6.83c0-.47-.08-.91-.23-1.33-.15-.42-.37-.79-.64-1.1-.28-.31-.61-.56-.99-.74-.39-.18-.81-.27-1.28-.27s-.89.09-1.31.26c-.42.17-.77.4-1.08.7-.31.3-.56.64-.75 1.04-.19.4-.3.83-.32 1.28v.16c0 .48.09.93.27 1.36.18.43.43.79.75 1.1.31.31.68.56 1.1.74.42.18.87.27 1.34.27.47 0 .89-.09 1.28-.27.39-.18.72-.43.99-.74.28-.31.49-.68.64-1.1.15-.42.23-.88.23-1.36ZM143 33.09c-.1.08-.19.13-.3.15-.11.02-.21.03-.3.03h-1.65a.74.74 0 0 1-.34-.07.749.749 0 0 1-.24-.19.919.919 0 0 1-.16-.27c-.04-.1-.08-.21-.11-.32l-.23-1.07c-.11.23-.29.46-.55.72-.26.25-.57.48-.95.69-.38.21-.81.39-1.3.52-.49.14-1.02.21-1.6.21-.83 0-1.57-.16-2.21-.48-.64-.32-1.18-.76-1.63-1.31-.44-.55-.78-1.2-1-1.94-.23-.74-.34-1.53-.34-2.37v-7.17c0-.28.06-.49.18-.63s.31-.21.57-.21h2.53c.31 0 .53.05.64.16.12.11.17.31.17.62v7.13c0 .31.06.61.18.89s.28.53.49.74c.2.22.44.39.72.51.27.12.56.19.87.19.26 0 .55-.04.85-.13.3-.09.59-.22.85-.41.26-.19.48-.43.66-.72.17-.29.26-.64.26-1.05v-7.12c0-.12.03-.25.07-.37.05-.12.12-.22.21-.29.09-.06.18-.1.27-.12.09-.02.18-.03.29-.03h2.47c.31 0 .54.08.68.23.14.15.21.36.21.61v12.24c0 .14-.03.27-.09.38-.06.11-.15.21-.26.27l.07-.03.02.01ZM146.19 19.57c.09-.08.2-.13.3-.15.1-.02.2-.03.3-.03h1.65c.13 0 .24.02.34.07.1.05.17.11.24.19.07.08.12.17.16.27.04.1.08.21.11.32l.23.96c.11-.22.27-.46.47-.7.2-.24.46-.46.78-.65.31-.2.69-.36 1.12-.49.43-.13.94-.19 1.53-.19.46 0 .88.04 1.25.14s.72.23 1.03.4c.31.18.59.4.85.65.26.26.5.55.72.89.14-.22.35-.46.62-.71.27-.25.6-.47.98-.68.38-.2.8-.37 1.27-.5s.96-.2 1.49-.2c.83 0 1.56.16 2.18.48.62.32 1.14.76 1.55 1.31.41.55.72 1.2.93 1.94.2.74.31 1.53.31 2.37v7.17c0 .28-.06.49-.18.63s-.31.21-.57.21h-2.53c-.31 0-.53-.05-.64-.16-.11-.11-.17-.31-.17-.62v-7.23c0-.31-.05-.6-.15-.88-.1-.27-.24-.5-.41-.71-.17-.2-.39-.36-.64-.47-.25-.11-.53-.17-.84-.17-.28 0-.54.05-.79.16s-.47.26-.66.45a2.3 2.3 0 0 0-.46.7c-.11.27-.17.57-.17.9v7.17c0 .28-.06.49-.18.63s-.31.21-.58.21h-2.53c-.31 0-.53-.05-.64-.16-.11-.11-.17-.31-.17-.62v-7.23c0-.31-.05-.6-.14-.88-.09-.27-.22-.5-.39-.71-.17-.2-.38-.36-.62-.47-.24-.11-.52-.17-.83-.17-.26 0-.52.05-.77.16s-.48.26-.68.45c-.2.19-.37.43-.5.7a2.6 2.6 0 0 0-.24.9v7.22c0 .12-.02.25-.07.37s-.12.22-.21.28c-.09.06-.18.1-.27.12-.09.02-.18.03-.29.03h-2.47c-.31 0-.54-.08-.68-.23-.14-.15-.21-.36-.21-.61V20.16c0-.14.03-.27.09-.38.06-.12.15-.21.26-.27l-.07.03-.01.03ZM183.52 32.46c0 .12-.02.24-.07.36-.04.11-.12.2-.22.27-.08.08-.17.13-.28.15-.11.02-.2.03-.28.03h-2.16c-.15 0-.28-.02-.37-.06a.658.658 0 0 1-.23-.17.865.865 0 0 1-.15-.27c-.04-.11-.08-.22-.13-.34l-.14-.49c-.2.2-.42.39-.67.58a5.098 5.098 0 0 1-1.8.87c-.34.09-.71.14-1.08.14a7.098 7.098 0 0 1-3.62-.97c-.53-.31-1.01-.68-1.44-1.12-.43-.43-.8-.92-1.11-1.45-.31-.53-.55-1.11-.72-1.72-.17-.62-.25-1.26-.25-1.93 0-1.01.19-1.96.56-2.83.37-.87.88-1.63 1.52-2.28a7.05 7.05 0 0 1 5.05-2.07c.45 0 .87.05 1.26.15.39.1.75.24 1.07.42.33.17.62.39.88.63s.49.51.69.79l.32-1c.07-.18.13-.33.18-.44.05-.11.1-.2.15-.25.05-.05.12-.09.2-.11.08-.02.19-.03.34-.03h1.63c.08 0 .17.01.28.03.11.02.2.07.28.15.1.08.17.17.22.27.05.1.07.22.07.35v12.33l.02.01Zm-10.78-6.12c0 .48.08.93.23 1.35.15.42.36.78.64 1.09.28.31.61.55 1 .73.39.18.82.27 1.3.27a3.44 3.44 0 0 0 2.45-1c.31-.31.55-.67.73-1.09.17-.42.26-.87.26-1.35 0-.48-.09-.91-.26-1.33a3.498 3.498 0 0 0-1.82-1.88c-.42-.19-.87-.28-1.36-.28-.49 0-.91.09-1.3.28-.39.19-.72.44-1 .76s-.49.69-.64 1.12a4 4 0 0 0-.23 1.33ZM196.05 31.91c-.2.2-.42.39-.67.58a5.2 5.2 0 0 1-1.77.89c-.34.09-.7.14-1.08.14-.99 0-1.91-.19-2.74-.56-.83-.37-1.55-.88-2.15-1.53-.6-.65-1.07-1.41-1.41-2.28-.34-.88-.51-1.82-.51-2.82 0-1 .17-1.96.51-2.83.34-.87.81-1.63 1.41-2.28.6-.65 1.32-1.15 2.15-1.52.84-.37 1.75-.55 2.74-.55.4 0 .77.03 1.1.1.33.07.63.17.91.3.27.13.52.29.75.47.23.18.45.38.65.6v-4.56c0-.23.07-.43.21-.59.14-.16.36-.24.64-.24h2.46c.09 0 .19.02.3.06.11.04.2.1.29.17.09.07.16.16.21.26.05.1.08.21.08.34v16.36c0 .56-.3.84-.89.84h-2.14c-.15 0-.26-.02-.34-.05a.447.447 0 0 1-.2-.16c-.05-.07-.1-.16-.15-.26-.04-.11-.1-.23-.17-.37l-.21-.52.02.01Zm-6.4-5.57c0 .48.07.93.22 1.35.15.42.36.78.64 1.09.28.31.61.55 1 .73.39.18.82.27 1.3.27a3.408 3.408 0 0 0 3.14-1.99c.19-.4.29-.83.31-1.29v-.15c0-.47-.09-.91-.26-1.33a3.498 3.498 0 0 0-1.82-1.88c-.42-.19-.87-.28-1.36-.28-.49 0-.91.09-1.3.28-.39.19-.73.44-1 .76-.28.32-.49.69-.64 1.12-.15.42-.22.87-.22 1.33l-.01-.01ZM202.63 26.34c0-.67.09-1.32.26-1.94.17-.62.41-1.19.72-1.72s.68-1.01 1.12-1.44c.44-.43.92-.8 1.45-1.11a7.246 7.246 0 0 1 3.65-.96c.99 0 1.92.18 2.8.55.87.37 1.63.88 2.27 1.52.65.65 1.16 1.4 1.53 2.28.38.87.56 1.81.56 2.83 0 .67-.09 1.32-.26 1.93a7.101 7.101 0 0 1-1.84 3.17c-.43.43-.92.81-1.45 1.12a7.098 7.098 0 0 1-3.62.97c-.66 0-1.32-.08-1.93-.25a7.101 7.101 0 0 1-3.17-1.84c-.43-.43-.81-.92-1.12-1.45a7.271 7.271 0 0 1-.98-3.65l.01-.01Zm3.99 0c0 .48.07.93.22 1.35.15.42.36.78.63 1.09.28.31.61.55 1 .73.39.18.83.27 1.32.27.49 0 .9-.09 1.28-.27.38-.18.71-.42.97-.73.27-.31.47-.67.61-1.09.14-.42.21-.87.21-1.35 0-.48-.07-.91-.21-1.33-.14-.42-.35-.8-.61-1.12-.27-.32-.59-.57-.97-.76a2.83 2.83 0 0 0-1.28-.28c-.47 0-.93.09-1.32.28-.39.19-.72.44-1 .76a3.5 3.5 0 0 0-.63 1.12c-.15.42-.22.87-.22 1.33ZM221.25 28.95c.2.2.41.36.64.5.23.14.45.24.66.33.21.09.4.14.56.18.16.04.27.05.33.05.14 0 .32 0 .53-.02.21-.01.42-.04.62-.1.2-.05.37-.14.51-.27s.21-.3.21-.53c0-.2-.04-.37-.12-.49-.08-.12-.2-.22-.35-.31-.15-.08-.34-.16-.56-.22-.22-.06-.47-.14-.75-.23-.87-.23-1.6-.51-2.17-.84-.57-.33-1.02-.7-1.35-1.1-.33-.4-.56-.84-.69-1.31-.13-.47-.2-.96-.2-1.48 0-.61.12-1.16.36-1.65.24-.5.58-.92 1.03-1.27.44-.35.98-.63 1.6-.82.62-.19 1.31-.29 2.07-.29.46 0 .89.04 1.29.12.4.08.79.2 1.15.36.36.16.72.38 1.07.63.35.26.69.57 1.03.92.12.15.19.28.19.41 0 .13-.08.27-.25.41-.28.23-.56.46-.81.69-.26.23-.53.48-.81.76-.09.07-.17.12-.26.14-.09.02-.17.02-.25 0a.696.696 0 0 1-.23-.11.89.89 0 0 1-.2-.19c-.26-.28-.55-.48-.88-.57-.33-.09-.64-.15-.92-.15-.36 0-.64.06-.85.19-.21.12-.31.31-.3.57.01.19.09.34.21.44.12.1.28.19.47.26.19.07.38.12.59.16.21.04.4.09.57.14.66.21 1.26.44 1.81.69.55.25 1.02.55 1.42.91.4.36.71.79.94 1.3.22.5.34 1.12.34 1.84s-.15 1.37-.43 1.94c-.29.57-.68 1.05-1.19 1.43-.5.39-1.1.68-1.79.89-.69.2-1.43.31-2.23.31-.45 0-.91-.04-1.38-.12-.47-.08-.92-.21-1.36-.39-.44-.18-.85-.41-1.25-.69-.4-.28-.74-.62-1.05-1.02-.08-.1-.14-.21-.18-.32a.76.76 0 0 1-.05-.33c.01-.11.03-.21.07-.3.04-.09.11-.17.19-.24l1.41-1.41c.17-.15.33-.2.47-.15.14.05.31.17.52.37v-.02ZM98.3 57.33c-.32 0-.48-.16-.48-.48v-1.32a6.92 6.92 0 0 1-2.19 1.51c-.83.36-1.73.55-2.7.55-.65 0-1.28-.09-1.89-.26-.61-.17-1.18-.41-1.71-.73a7.308 7.308 0 0 1-2.59-2.59c-.32-.53-.56-1.1-.73-1.71-.17-.61-.26-1.24-.26-1.9 0-.66.08-1.29.26-1.9.17-.61.42-1.18.73-1.72.32-.54.69-1.02 1.13-1.46.44-.44.92-.82 1.46-1.13.53-.32 1.1-.56 1.71-.73a7.01 7.01 0 0 1 1.89-.26c.97 0 1.87.18 2.7.55.83.37 1.56.87 2.19 1.52v-5.48c0-.13.05-.24.14-.34a.49.49 0 0 1 .36-.14h1.14c.13 0 .24.04.34.13.09.09.14.2.14.35v17.06c0 .32-.17.48-.52.48h-1.13.01Zm-.37-6.93c0-.68-.13-1.33-.39-1.96a5.44 5.44 0 0 0-1.07-1.66c-.45-.48-.98-.86-1.59-1.14-.61-.28-1.26-.43-1.94-.43-.68 0-1.33.14-1.93.43-.6.29-1.13.67-1.57 1.14-.45.48-.8 1.03-1.06 1.66-.26.63-.39 1.28-.39 1.96 0 .68.13 1.35.39 1.97.26.62.61 1.16 1.06 1.63.45.47.97.84 1.57 1.12.6.28 1.24.42 1.93.42s1.33-.14 1.94-.42A5.14 5.14 0 0 0 96.47 54a5.3 5.3 0 0 0 1.07-1.63c.26-.62.39-1.28.39-1.97ZM112.96 54.15c.07-.06.14-.11.21-.16a.4.4 0 0 1 .23-.08c.11 0 .21.07.32.2.15.2.26.36.36.48.1.12.17.22.22.3.06.08.1.14.13.18a.42.42 0 0 1 .12.3c0 .08-.03.17-.09.26s-.17.2-.32.32a8.081 8.081 0 0 1-2.05 1.19c-.37.15-.77.26-1.18.34-.41.08-.85.12-1.31.12-.65 0-1.28-.09-1.88-.26-.61-.17-1.18-.42-1.71-.73-.54-.32-1.03-.7-1.47-1.13-.44-.44-.82-.92-1.14-1.46-.32-.53-.57-1.1-.75-1.71-.17-.61-.26-1.24-.26-1.9 0-.66.08-1.29.25-1.9.16-.61.4-1.19.7-1.72.3-.53.67-1.02 1.1-1.45.43-.44.91-.81 1.45-1.13a7.27 7.27 0 0 1 3.71-.99c.55 0 1.09.06 1.63.19a7.312 7.312 0 0 1 2.95 1.42c.43.35.82.75 1.17 1.2.47.63.81 1.34 1.04 2.14.23.8.33 1.73.32 2.77 0 .34-.16.51-.48.51H104.7c.12.58.34 1.12.65 1.62s.68.93 1.12 1.3c.43.37.92.66 1.45.86.53.21 1.08.31 1.65.31.4 0 .77-.04 1.09-.11a4.516 4.516 0 0 0 1.63-.75c.23-.17.44-.33.66-.51l.02-.02h-.01Zm-6-8.1c-.55.37-1.03.84-1.43 1.41-.4.57-.67 1.19-.82 1.87h9.89c-.08-.6-.27-1.16-.56-1.65-.3-.5-.67-.92-1.11-1.27-.44-.35-.95-.62-1.5-.82-.56-.19-1.13-.29-1.73-.29-.47 0-.94.06-1.4.19-.46.12-.9.31-1.32.57l-.02-.01ZM121.76 56.85c0 .32-.16.48-.48.48h-1.13c-.34 0-.51-.16-.51-.48V39.79c0-.15.05-.26.14-.35.09-.09.21-.13.34-.13h1.14c.15 0 .28.05.37.14.09.1.14.21.14.34v17.06h-.01ZM141.97 55.21c.13 0 .24.05.34.14.1.09.14.22.14.38v1.13c0 .13-.04.25-.13.34-.09.09-.2.14-.35.14h-9.3c-.32 0-.48-.16-.48-.48V41.58c0-.13.04-.24.13-.34.09-.09.21-.14.37-.14h1.13c.14 0 .25.04.34.12.09.08.14.2.14.36v13.64h7.67v-.01ZM146.84 40.91c0 .32-.16.48-.48.48h-1.13c-.34 0-.51-.16-.51-.48v-1.13c0-.15.05-.26.14-.35.09-.09.21-.13.34-.13h1.14c.15 0 .28.05.37.14.09.09.13.21.13.35v1.13-.01Zm0 15.94c0 .32-.16.48-.48.48h-1.13c-.34 0-.51-.16-.51-.48V43.92c0-.15.05-.26.14-.35.09-.09.21-.13.34-.13h1.14c.15 0 .28.05.37.14.09.09.13.21.13.34v12.93ZM153.91 57.48c-.34 0-.67-.04-1.01-.12-.34-.08-.64-.22-.91-.42-.27-.2-.49-.47-.66-.82-.17-.35-.26-.79-.26-1.33V45.3h-1.27c-.18 0-.32-.03-.4-.08-.08-.05-.13-.18-.13-.37v-1.02c0-.19.04-.31.13-.36.09-.05.22-.07.4-.07h1.27v-2.33c0-.12.03-.21.08-.27.05-.06.14-.1.26-.14.04-.01.13-.03.27-.05.14-.02.28-.04.42-.07.17-.03.36-.06.57-.1.12-.01.22 0 .3.02.08.02.13.07.16.13s.05.13.06.2c.01.07.01.16.01.25v2.35h1.52c.17 0 .29.04.37.11.08.07.11.2.11.39v.86c0 .19-.04.33-.11.41-.07.08-.2.12-.37.12h-1.52v9.46c0 .26.06.43.19.54.13.11.3.15.51.15a.6.6 0 0 1 .42.15c.11.1.16.25.16.43v.9c0 .17-.05.3-.15.4-.1.1-.24.15-.4.15l-.02.02ZM156.46 50.4c0-.98.19-1.91.57-2.78.38-.87.9-1.64 1.55-2.29a7.43 7.43 0 0 1 2.28-1.55c.87-.38 1.79-.57 2.77-.57.65 0 1.28.09 1.89.26.61.17 1.18.42 1.71.73.53.32 1.02.69 1.46 1.13.44.44.81.92 1.13 1.46.32.54.56 1.11.73 1.72.17.61.26 1.24.26 1.9 0 .66-.09 1.29-.26 1.9-.17.61-.42 1.18-.73 1.71-.32.53-.7 1.02-1.13 1.46-.44.44-.93.81-1.46 1.13-.53.31-1.1.56-1.71.73a7.01 7.01 0 0 1-3.78 0c-.61-.17-1.18-.41-1.71-.73a7.308 7.308 0 0 1-3.32-4.3c-.17-.61-.26-1.24-.26-1.9l.01-.01Zm2.18 0c0 .69.13 1.35.39 1.97A5.3 5.3 0 0 0 160.1 54c.45.47.98.84 1.58 1.12.61.28 1.26.42 1.95.42s1.33-.14 1.93-.42c.6-.28 1.13-.65 1.57-1.12.45-.47.8-1.01 1.06-1.63.26-.62.39-1.28.39-1.97s-.13-1.33-.39-1.96c-.26-.63-.61-1.18-1.06-1.66-.45-.48-.97-.86-1.57-1.14-.6-.28-1.25-.43-1.93-.43-.68 0-1.34.14-1.95.43-.6.29-1.13.67-1.58 1.14a5.44 5.44 0 0 0-1.07 1.66c-.26.63-.39 1.28-.39 1.96ZM175.74 44.9c.09-.17.21-.35.38-.55.16-.2.36-.38.59-.55.23-.17.5-.31.8-.42.3-.11.63-.17.99-.17.39 0 .75.02 1.07.05.32.03.62.09.9.17.29.08.56.2.83.34.27.14.55.32.84.54.09.07.18.15.29.25.11.1.16.22.16.36 0 .08-.02.15-.05.22l-.64 1c-.1.12-.2.19-.31.19-.06 0-.11-.02-.17-.06-.06-.04-.11-.09-.19-.14a5.14 5.14 0 0 0-1.32-.67 4.35 4.35 0 0 0-1.36-.21c-.36 0-.72.07-1.05.21-.33.14-.63.34-.89.6-.26.26-.47.58-.62.95-.16.38-.24.8-.24 1.27v8.57c0 .32-.16.48-.48.48h-1.14c-.34 0-.5-.16-.5-.48V43.92c0-.15.05-.26.14-.35.09-.09.21-.13.34-.13h1.14a.476.476 0 0 1 .51.48v.98h-.02ZM196.41 55.48c-.63.64-1.36 1.15-2.19 1.52-.83.37-1.73.55-2.7.55-.65 0-1.28-.09-1.89-.26-.61-.17-1.18-.42-1.71-.73-.53-.32-1.02-.7-1.45-1.13-.44-.44-.82-.92-1.13-1.46-.32-.54-.56-1.11-.73-1.72-.17-.61-.26-1.24-.26-1.9 0-.66.09-1.29.26-1.9.17-.61.42-1.18.73-1.71.32-.53.7-1.02 1.13-1.45.44-.44.92-.81 1.45-1.13.53-.31 1.1-.56 1.71-.73.6-.17 1.24-.26 1.89-.26.97 0 1.87.18 2.7.55.83.37 1.56.87 2.19 1.52V43.9c0-.32.16-.48.48-.48h1.13c.34 0 .51.16.51.48v12.94c0 .15-.05.26-.14.35-.09.09-.21.13-.34.13h-1.14a.476.476 0 0 1-.51-.48v-1.37l.01.01Zm.11-5.13c0-.68-.13-1.34-.4-1.96-.26-.62-.62-1.17-1.07-1.64a5.14 5.14 0 0 0-1.59-1.12c-.61-.28-1.25-.42-1.94-.42s-1.33.14-1.93.42c-.6.28-1.13.65-1.57 1.12-.45.47-.8 1.01-1.06 1.64-.26.62-.39 1.28-.39 1.96 0 .68.13 1.33.39 1.96.26.63.61 1.18 1.06 1.66.45.48.97.86 1.57 1.14.6.28 1.25.43 1.93.43.68 0 1.33-.14 1.94-.43.61-.29 1.14-.67 1.59-1.14.45-.48.81-1.03 1.07-1.66.26-.63.4-1.28.4-1.96ZM203.77 56.85c0 .32-.16.48-.48.48h-1.13c-.34 0-.51-.16-.51-.48V39.79c0-.15.05-.26.14-.35.09-.09.21-.13.34-.13h1.14c.15 0 .28.05.37.14.09.1.14.21.14.34v17.06h-.01Z"/><path fill="#FF6D2D" d="M38.36 75.37C18.58 75.37 2.5 59.28 2.5 39.5c0-19.78 16.09-35.87 35.86-35.87S74.22 19.72 74.22 39.5c0 19.78-16.09 35.87-35.86 35.87Zm0-68.78c-18.14 0-32.9 14.76-32.9 32.91s14.76 32.91 32.91 32.91S71.28 57.65 71.28 39.5 56.51 6.59 38.36 6.59Z"/><path fill="#FF6D2D" d="M58.07 39.62v3.37H45.24v-18.5h2.63v-3.34H35.94v3.34h2.91V42.99h-2.91v3.52h25.31v-6.89h-3.18Z"/><path fill="#FF6D2D" d="M40.24 52.5v.44H27.41v-8.52h3.97v.44l-.02 3.81h2.26v-9.53h-2.26l-.01 2.5v.44h-3.94V34.44H37.96V31.1H18.11v3.34h2.91V52.94h-2.91v3.52h25.31v-6.89h-3.18v2.93Z"/></svg>