<svg width="435" height="89" viewBox="0 0 435 89" fill="none" xmlns="http://www.w3.org/2000/svg">
<path d="M19.0089 65.1644H23.8864L20.7903 87.4732H15.9127L19.0089 65.1644Z" fill="#898484"/>
<path d="M41.6406 70.6198C41.3098 70.1153 40.8178 69.7391 40.1731 69.4997C39.5284 69.2603 38.9007 69.1405 38.2985 69.1405C37.9422 69.1405 37.569 69.1833 37.1703 69.2688C36.7716 69.3543 36.4068 69.4826 36.059 69.6621C35.7113 69.8417 35.4228 70.0811 35.1684 70.3718C34.9224 70.6626 34.7612 71.0217 34.7018 71.4407C34.6424 71.9452 34.7273 72.3556 34.9648 72.6805C35.2023 73.0055 35.5501 73.2791 35.9997 73.5014C36.4492 73.7237 36.9667 73.9204 37.5605 74.0828C38.1543 74.2539 38.7565 74.442 39.3588 74.6472C39.9611 74.861 40.5548 75.1089 41.1232 75.3997C41.7 75.6904 42.192 76.0666 42.6076 76.5198C43.0233 76.973 43.3287 77.5373 43.5322 78.2214C43.7274 78.9054 43.7528 79.7263 43.6086 80.6925C43.4389 81.9324 43.0572 83.0183 42.4634 83.9418C41.8696 84.8653 41.1401 85.6349 40.2749 86.242C39.4097 86.8491 38.4427 87.3022 37.3654 87.593C36.2881 87.8837 35.1853 88.0376 34.0402 88.0376C32.5981 88.0376 31.3003 87.8153 30.1297 87.3792C28.9591 86.9431 27.9157 86.2249 26.9826 85.2415L31.0119 81.3937C31.4275 82.0692 31.9874 82.5908 32.683 82.9499C33.3785 83.3176 34.1335 83.5057 34.9478 83.5057C35.3465 83.5057 35.7537 83.4544 36.1693 83.3604C36.585 83.2663 36.9752 83.1209 37.323 82.9328C37.6792 82.7447 37.9761 82.5053 38.2136 82.206C38.4511 81.9153 38.6038 81.5647 38.6632 81.1628C38.765 80.4873 38.5869 79.9572 38.1203 79.5724C37.6538 79.1876 37.0515 78.8541 36.322 78.5805C35.5925 78.3069 34.8036 78.0333 33.9469 77.7597C33.0901 77.486 32.3097 77.1184 31.5972 76.6566C30.8846 76.1949 30.3333 75.5878 29.9261 74.8268C29.5189 74.0658 29.4002 73.0739 29.5613 71.834C29.731 70.6369 30.1127 69.5852 30.7065 68.6788C31.3003 67.7724 32.0383 67.02 32.912 66.4129C33.7857 65.8058 34.7527 65.344 35.8215 65.0448C36.8819 64.7369 37.9592 64.5916 39.0449 64.5916C40.2919 64.5916 41.4795 64.7711 42.5907 65.1303C43.7019 65.4894 44.6689 66.0879 45.4833 66.9259L41.6406 70.6198Z" fill="#898484"/>
<path d="M49.767 76.3231C50.0214 74.536 50.5474 72.9199 51.3447 71.4749C52.1506 70.0298 53.143 68.7899 54.3476 67.7724C55.5436 66.7549 56.9178 65.9768 58.4532 65.4295C59.997 64.8823 61.6342 64.6086 63.3646 64.6086C65.0951 64.6086 66.6474 64.8823 68.0216 65.4295C69.3958 65.9768 70.5409 66.7549 71.4571 67.7724C72.3732 68.7899 73.0264 70.0298 73.425 71.4749C73.8237 72.9199 73.8916 74.5446 73.6456 76.3231C73.3996 78.1102 72.8737 79.7263 72.0848 81.1714C71.2959 82.625 70.2949 83.8563 69.0819 84.8738C67.8774 85.8913 66.5032 86.678 64.9763 87.2252C63.441 87.7725 61.8123 88.0461 60.0818 88.0461C58.3514 88.0461 56.7906 87.7725 55.4079 87.2252C54.0168 86.678 52.8716 85.8999 51.9555 84.8738C51.0393 83.8563 50.3777 82.625 49.9875 81.1714C49.5888 79.7263 49.521 78.1102 49.767 76.3231ZM54.8311 76.3231C54.6869 77.3748 54.7123 78.3325 54.9244 79.2047C55.128 80.0769 55.4927 80.8293 56.0017 81.4706C56.5107 82.1119 57.1638 82.6079 57.9527 82.967C58.7416 83.3261 59.6662 83.5057 60.7011 83.5057C61.736 83.5057 62.7115 83.3261 63.6106 82.967C64.5013 82.6079 65.2987 82.1119 65.9858 81.4706C66.6729 80.8293 67.2412 80.0769 67.6908 79.2047C68.1404 78.3325 68.4372 77.3748 68.5815 76.3231C68.7257 75.297 68.7002 74.3393 68.5051 73.4586C68.31 72.5779 67.9453 71.8169 67.4278 71.1756C66.9104 70.5343 66.2487 70.0383 65.4598 69.6792C64.671 69.3201 63.7463 69.1405 62.7115 69.1405C61.6681 69.1405 60.7011 69.3201 59.8019 69.6792C58.9028 70.0383 58.1139 70.5343 57.4268 71.1756C56.7397 71.8169 56.1713 72.5779 55.7218 73.4586C55.2722 74.3393 54.9753 75.2885 54.8311 76.3231Z" fill="#898484"/>
<path d="M97.7193 69.5168H91.4082L92.002 65.1644H109.51L108.916 69.5168H102.605L100.103 87.4732H95.2254L97.7193 69.5168Z" fill="#898484"/>
<path d="M118.069 85.5494H118.001C117.374 86.3702 116.602 86.9602 115.685 87.3108C114.769 87.6699 113.828 87.8495 112.869 87.8495C112.157 87.8495 111.495 87.7469 110.867 87.5502C110.24 87.3536 109.705 87.0543 109.256 86.6524C108.806 86.2505 108.484 85.7631 108.272 85.1731C108.06 84.5831 108.009 83.8991 108.119 83.121C108.306 81.7956 108.806 80.7695 109.603 80.0513C110.409 79.3245 111.359 78.7943 112.445 78.4437C113.539 78.0931 114.685 77.8965 115.881 77.8281C117.077 77.7682 118.162 77.734 119.146 77.734C119.248 76.896 119.045 76.2291 118.519 75.7332C118.001 75.2372 117.331 74.9892 116.517 74.9892C115.745 74.9892 115.024 75.1517 114.345 75.4766C113.667 75.8016 113.039 76.2462 112.454 76.8191L110.333 74.2368C111.308 73.4159 112.411 72.8003 113.633 72.3898C114.854 71.9794 116.084 71.7742 117.34 71.7742C118.714 71.7742 119.825 71.9452 120.665 72.2958C121.513 72.6464 122.149 73.1508 122.59 73.8263C123.031 74.5019 123.286 75.3227 123.354 76.2975C123.43 77.2723 123.371 78.401 123.184 79.6836L122.124 87.4647H117.815L118.069 85.5494ZM117.569 80.761C117.212 80.761 116.771 80.7781 116.237 80.8123C115.702 80.8465 115.185 80.932 114.676 81.0773C114.167 81.2227 113.718 81.445 113.327 81.7357C112.937 82.0265 112.717 82.4369 112.657 82.967C112.615 83.2578 112.649 83.5057 112.75 83.711C112.852 83.9076 112.996 84.0872 113.192 84.2326C113.378 84.3779 113.607 84.4891 113.862 84.5489C114.125 84.6088 114.379 84.643 114.625 84.643C115.083 84.643 115.533 84.5831 115.982 84.4549C116.432 84.3266 116.839 84.1556 117.204 83.9162C117.569 83.6853 117.874 83.3946 118.128 83.0355C118.374 82.6763 118.536 82.2573 118.595 81.7785L118.722 80.7695H117.569V80.761Z" fill="#898484"/>
<path d="M130.318 72.1589H134.822L134.542 74.2367H134.602C134.788 73.946 135.043 73.6467 135.357 73.356C135.671 73.0653 136.027 72.8002 136.417 72.5693C136.816 72.3385 137.265 72.1503 137.766 72.005C138.266 71.8596 138.801 71.7827 139.361 71.7827C140.548 71.7827 141.49 71.9708 142.177 72.3299C142.864 72.6976 143.364 73.2106 143.678 73.8605C143.992 74.5103 144.153 75.2799 144.179 76.1606C144.204 77.0413 144.136 77.999 143.992 79.0251L142.838 87.4732H138.148L139.182 79.9742C139.242 79.5296 139.301 79.0764 139.335 78.6061C139.378 78.1358 139.344 77.6997 139.242 77.2979C139.14 76.896 138.945 76.5711 138.648 76.3231C138.351 76.0751 137.91 75.9469 137.299 75.9469C136.697 75.9469 136.188 76.058 135.781 76.2803C135.374 76.5026 135.043 76.7934 134.797 77.1611C134.551 77.5287 134.356 77.9477 134.237 78.4095C134.11 78.8712 134.017 79.3586 133.957 79.8545L132.897 87.4818H128.206L130.318 72.1589Z" fill="#898484"/>
<path d="M152.577 63.651H157.267L155.232 78.2043L161.263 72.1589H167.014L160.016 79.0593L165.046 87.4732H159.142L155.079 79.7177H155.019L153.959 87.4732H149.268L152.577 63.651Z" fill="#898484"/>
<path d="M179.857 76.6651C179.297 75.8015 178.44 75.374 177.295 75.374C176.896 75.374 176.506 75.468 176.107 75.6561C175.709 75.8443 175.48 76.1692 175.42 76.6309C175.352 77.0072 175.514 77.2893 175.887 77.4689C176.26 77.6485 176.735 77.8024 177.295 77.9392C177.855 78.076 178.466 78.2214 179.127 78.3838C179.78 78.5377 180.383 78.7857 180.926 79.1277C181.468 79.4698 181.884 79.9229 182.189 80.4958C182.486 81.0773 182.58 81.8469 182.452 82.8131C182.325 83.7964 182.003 84.6173 181.485 85.2586C180.959 85.8999 180.34 86.4129 179.628 86.8063C178.907 87.1996 178.126 87.4647 177.269 87.6271C176.413 87.781 175.581 87.8666 174.767 87.8666C173.707 87.8666 172.655 87.7126 171.612 87.4134C170.568 87.1055 169.728 86.5668 169.084 85.7887L172.367 82.6079C172.74 83.1551 173.172 83.5655 173.664 83.8563C174.156 84.1384 174.75 84.2838 175.463 84.2838C176.006 84.2838 176.506 84.2069 176.964 84.0444C177.422 83.8819 177.685 83.5998 177.745 83.1808C177.812 82.7789 177.66 82.4796 177.295 82.2829C176.93 82.0863 176.464 81.9153 175.887 81.7785C175.31 81.6416 174.699 81.4963 174.046 81.3338C173.384 81.1799 172.782 80.9405 172.231 80.6241C171.679 80.3077 171.247 79.8631 170.933 79.2816C170.619 78.7002 170.534 77.9306 170.687 76.9644C170.814 76.058 171.103 75.2799 171.561 74.6301C172.019 73.9802 172.579 73.4415 173.232 73.0225C173.893 72.6035 174.614 72.2957 175.403 72.0905C176.192 71.8938 176.99 71.7912 177.778 71.7912C178.779 71.7912 179.772 71.9366 180.747 72.2359C181.723 72.5266 182.52 73.0567 183.122 73.8092L179.857 76.6651Z" fill="#898484"/>
<path d="M217.401 82.2146L221.617 87.4733H215.586L214.025 85.3612C212.964 86.3018 211.879 86.9859 210.776 87.4049C209.673 87.8238 208.46 88.0376 207.154 88.0376C206.153 88.0376 205.203 87.9008 204.295 87.6272C203.387 87.3535 202.607 86.9431 201.962 86.3873C201.318 85.8315 200.826 85.1304 200.495 84.2924C200.156 83.4544 200.079 82.4711 200.24 81.3595C200.342 80.6498 200.563 79.9657 200.902 79.3244C201.233 78.6831 201.649 78.1017 202.132 77.5801C202.624 77.0585 203.184 76.5968 203.803 76.212C204.431 75.8272 205.084 75.5108 205.771 75.28C205.457 74.8781 205.177 74.5018 204.931 74.1427C204.685 73.7836 204.482 73.4074 204.321 73.0055C204.168 72.6036 204.058 72.1846 203.99 71.7485C203.922 71.3039 203.939 70.8165 204.024 70.2692C204.168 69.2603 204.49 68.3966 204.974 67.6869C205.466 66.9772 206.06 66.3872 206.772 65.9255C207.485 65.4638 208.265 65.1303 209.13 64.9165C209.995 64.7027 210.861 64.6001 211.734 64.6001C212.591 64.6001 213.389 64.7113 214.126 64.9336C214.864 65.1559 215.501 65.4894 216.035 65.9426C216.569 66.3958 216.96 66.9601 217.206 67.6442C217.452 68.3282 217.52 69.1406 217.392 70.0897C217.291 70.7652 217.087 71.3808 216.799 71.9452C216.51 72.5095 216.137 73.0397 215.687 73.5356C215.238 74.0316 214.737 74.4676 214.186 74.861C213.635 75.2543 213.066 75.5878 212.481 75.8871L214.915 78.9397L217.477 75.9811H222.915L217.401 82.2146ZM208.307 77.9563C207.968 78.1444 207.646 78.3411 207.323 78.5378C207.001 78.7344 206.696 78.9568 206.416 79.1962C206.136 79.4356 205.898 79.7178 205.712 80.0341C205.525 80.3505 205.398 80.7182 205.338 81.1372C205.279 81.5562 205.305 81.9324 205.415 82.2744C205.534 82.6079 205.712 82.8901 205.958 83.121C206.204 83.3518 206.509 83.5399 206.848 83.6768C207.188 83.8136 207.552 83.882 207.926 83.882C208.655 83.882 209.308 83.7281 209.877 83.4117C210.445 83.0953 211.03 82.7105 211.616 82.2488L208.307 77.9563ZM211.149 68.3795C210.547 68.3795 210.012 68.5677 209.537 68.9439C209.071 69.3201 208.782 69.8246 208.681 70.4574C208.638 70.731 208.655 70.9961 208.749 71.2611C208.833 71.5262 208.952 71.7742 209.105 72.0136C209.257 72.253 209.436 72.4839 209.622 72.6891C209.809 72.9029 209.987 73.091 210.157 73.2534C210.403 73.1081 210.691 72.9371 211.013 72.7318C211.336 72.5352 211.641 72.3129 211.921 72.0734C212.201 71.834 212.455 71.569 212.667 71.2868C212.888 71.0046 213.015 70.7053 213.058 70.389C213.143 69.7391 212.998 69.2432 212.617 68.8926C212.243 68.5506 211.751 68.3795 211.149 68.3795Z" fill="#898484"/>
<path d="M242.84 65.1644H257.685L257.057 69.7049H247.09L246.462 74.2453H255.683L255.021 78.7857H245.801L244.613 87.4818H239.736L242.84 65.1644Z" fill="#898484"/>
<path d="M264.004 63.651H268.695L265.379 87.4732H260.688L264.004 63.651Z" fill="#898484"/>
<path d="M286.602 84.831C285.728 85.7973 284.685 86.5412 283.464 87.0713C282.242 87.6015 281.021 87.858 279.791 87.858C278.62 87.858 277.551 87.6699 276.576 87.2936C275.6 86.9174 274.777 86.3787 274.124 85.669C273.471 84.9679 272.988 84.1213 272.691 83.1295C272.385 82.1461 272.317 81.0431 272.487 79.8203C272.657 78.6061 273.021 77.5031 273.598 76.5112C274.175 75.5279 274.888 74.6813 275.736 73.9716C276.593 73.2705 277.56 72.7232 278.645 72.347C279.731 71.9708 280.851 71.7827 282.022 71.7827C283.107 71.7827 284.066 71.9708 284.897 72.347C285.729 72.7232 286.407 73.2619 286.933 73.9716C287.45 74.6728 287.815 75.5193 288.01 76.5112C288.205 77.5031 288.222 78.5976 288.061 79.8203L287.841 81.2996H276.957C277.025 82.206 277.331 82.9242 277.882 83.4544C278.433 83.9931 279.171 84.2581 280.088 84.2581C280.859 84.2581 281.53 84.0871 282.106 83.7366C282.683 83.386 283.209 82.9413 283.684 82.3941L286.602 84.831ZM283.574 78.0845C283.701 77.2893 283.531 76.6053 283.073 76.0409C282.615 75.4766 281.954 75.1858 281.105 75.1858C280.588 75.1858 280.113 75.2713 279.697 75.4338C279.282 75.6048 278.917 75.8186 278.603 76.0751C278.289 76.3402 278.026 76.6395 277.823 76.99C277.619 77.3406 277.466 77.6997 277.382 78.076H283.574V78.0845Z" fill="#898484"/>
<path d="M298.173 79.2817L294.109 72.1589H299.64L301.735 76.3146L304.925 72.1589H310.142L304.204 79.2817L308.92 87.4733H303.389L300.76 82.3685L296.51 87.4733H291.039L298.173 79.2817Z" fill="#898484"/>
<path d="M315.638 72.1589H320.329L318.2 87.4732H313.509L315.638 72.1589ZM315.927 67.3449C315.986 66.9686 316.113 66.6095 316.3 66.276C316.487 65.9426 316.724 65.6518 317.004 65.4124C317.284 65.173 317.606 64.9763 317.954 64.831C318.31 64.6856 318.675 64.6086 319.048 64.6086C319.803 64.6086 320.397 64.8737 320.847 65.4124C321.296 65.9511 321.466 66.5924 321.364 67.3534C321.322 67.7297 321.211 68.0888 321.016 68.4223C320.821 68.7557 320.592 69.0465 320.312 69.2859C320.032 69.5253 319.718 69.722 319.362 69.8673C319.006 70.0127 318.641 70.0896 318.268 70.0896C317.895 70.0896 317.547 70.0127 317.233 69.8673C316.919 69.722 316.656 69.5253 316.453 69.2859C316.241 69.0465 316.096 68.7557 316.003 68.4223C315.91 68.0888 315.884 67.7211 315.927 67.3449Z" fill="#898484"/>
<path d="M336.65 75.9469H332.527L331.806 81.0517C331.747 81.4707 331.713 81.8554 331.713 82.1975C331.713 82.548 331.772 82.8473 331.883 83.0953C331.993 83.3433 332.196 83.5399 332.476 83.6767C332.756 83.8136 333.146 83.882 333.647 83.882C333.893 83.882 334.224 83.8563 334.631 83.805C335.038 83.7537 335.352 83.634 335.581 83.4459L335.047 87.3878C334.504 87.5759 333.944 87.7041 333.375 87.764C332.799 87.8238 332.247 87.858 331.704 87.858C330.916 87.858 330.194 87.7725 329.55 87.6101C328.905 87.4391 328.354 87.174 327.904 86.8063C327.455 86.4386 327.132 85.9598 326.937 85.3698C326.742 84.7798 326.691 84.0701 326.793 83.2236L327.828 75.9469H324.825L325.359 72.1675H328.362L328.99 67.6271H333.681L333.053 72.1675H337.176L336.65 75.9469Z" fill="#898484"/>
<path d="M350.341 85.5494H350.273C349.645 86.3702 348.873 86.9602 347.957 87.3108C347.041 87.6699 346.099 87.8495 345.141 87.8495C344.428 87.8495 343.767 87.7469 343.139 87.5502C342.511 87.3536 341.977 87.0543 341.527 86.6524C341.078 86.2505 340.755 85.7631 340.543 85.1731C340.331 84.5831 340.28 83.8991 340.391 83.121C340.577 81.7956 341.078 80.7695 341.875 80.0513C342.681 79.3245 343.631 78.7943 344.717 78.4437C345.811 78.0931 346.956 77.8965 348.152 77.8281C349.348 77.7682 350.442 77.734 351.418 77.734C351.52 76.896 351.316 76.2291 350.79 75.7332C350.273 75.2372 349.603 74.9892 348.788 74.9892C348.016 74.9892 347.295 75.1517 346.617 75.4766C345.938 75.8016 345.311 76.2462 344.725 76.8191L342.605 74.2368C343.58 73.4159 344.683 72.8003 345.904 72.3898C347.126 71.9794 348.356 71.7742 349.611 71.7742C350.985 71.7742 352.097 71.9452 352.936 72.2958C353.785 72.6464 354.421 73.1508 354.862 73.8263C355.303 74.5019 355.557 75.3227 355.625 76.2975C355.702 77.2723 355.642 78.401 355.456 79.6836L354.395 87.4647H350.086L350.341 85.5494ZM349.84 80.761C349.484 80.761 349.043 80.7781 348.508 80.8123C347.974 80.8465 347.457 80.932 346.948 81.0773C346.439 81.2227 345.989 81.445 345.599 81.7357C345.209 82.0265 344.988 82.4369 344.929 82.967C344.886 83.2578 344.92 83.5057 345.022 83.711C345.124 83.9076 345.268 84.0872 345.463 84.2326C345.65 84.3779 345.879 84.4891 346.133 84.5489C346.396 84.6088 346.651 84.643 346.897 84.643C347.355 84.643 347.804 84.5831 348.254 84.4549C348.704 84.3266 349.111 84.1556 349.475 83.9162C349.84 83.6853 350.146 83.3946 350.4 83.0355C350.646 82.6763 350.807 82.2573 350.867 81.7785L350.994 80.7695H349.84V80.761Z" fill="#898484"/>
<path d="M362.59 72.1589H367.094L366.814 74.2367H366.873C367.06 73.946 367.314 73.6467 367.628 73.356C367.942 73.0653 368.298 72.8002 368.689 72.5693C369.087 72.3385 369.537 72.1503 370.037 72.005C370.538 71.8596 371.072 71.7827 371.632 71.7827C372.82 71.7827 373.761 71.9708 374.448 72.3299C375.135 72.6976 375.636 73.2106 375.95 73.8605C376.264 74.5103 376.425 75.2799 376.45 76.1606C376.476 77.0413 376.408 77.999 376.264 79.0251L375.11 87.4732H370.419L371.454 79.9742C371.513 79.5296 371.573 79.0764 371.607 78.6061C371.649 78.1358 371.615 77.6997 371.513 77.2979C371.412 76.896 371.216 76.5711 370.92 76.3231C370.631 76.0751 370.182 75.9469 369.571 75.9469C368.969 75.9469 368.46 76.058 368.052 76.2803C367.645 76.5026 367.314 76.7934 367.068 77.1611C366.822 77.5287 366.627 77.9477 366.509 78.4095C366.381 78.8712 366.288 79.3586 366.229 79.8545L365.168 87.4818H360.477L362.59 72.1589Z" fill="#898484"/>
<path d="M384.848 63.651H389.539L387.503 78.2043L393.534 72.1589H399.286L392.287 79.0593L397.318 87.4732H391.414L387.351 79.7177H387.291L386.231 87.4732H381.54L384.848 63.651Z" fill="#898484"/>
<path d="M412.128 76.6651C411.568 75.8015 410.712 75.374 409.566 75.374C409.168 75.374 408.777 75.468 408.379 75.6561C407.98 75.8443 407.751 76.1692 407.692 76.6309C407.624 77.0072 407.785 77.2893 408.158 77.4689C408.532 77.6485 409.007 77.8024 409.566 77.9392C410.126 78.076 410.737 78.2214 411.399 78.3838C412.052 78.5377 412.654 78.7857 413.197 79.1277C413.74 79.4612 414.155 79.9229 414.461 80.4958C414.758 81.0773 414.851 81.8469 414.724 82.8131C414.597 83.7964 414.274 84.6173 413.757 85.2586C413.231 85.8999 412.612 86.4129 411.899 86.8063C411.178 87.1996 410.398 87.4647 409.541 87.6271C408.684 87.781 407.853 87.8666 407.039 87.8666C405.978 87.8666 404.926 87.7126 403.883 87.4134C402.84 87.1055 402 86.5668 401.355 85.7887L404.638 82.6079C405.011 83.1551 405.444 83.5655 405.936 83.8563C406.428 84.1384 407.022 84.2838 407.734 84.2838C408.277 84.2838 408.777 84.2069 409.236 84.0444C409.694 83.8819 409.957 83.5998 410.016 83.1808C410.084 82.7789 409.931 82.4796 409.566 82.2829C409.202 82.0863 408.735 81.9153 408.158 81.7785C407.581 81.6416 406.971 81.4963 406.318 81.3338C405.656 81.1799 405.054 80.9405 404.502 80.6241C403.951 80.3077 403.518 79.8631 403.204 79.2816C402.891 78.7002 402.806 77.9306 402.958 76.9644C403.086 76.058 403.374 75.2799 403.832 74.6301C404.29 73.9802 404.85 73.4415 405.503 73.0225C406.165 72.6035 406.886 72.2957 407.675 72.0905C408.464 71.8938 409.261 71.7912 410.05 71.7912C411.051 71.7912 412.043 71.9366 413.019 72.2359C413.994 72.5266 414.792 73.0567 415.394 73.8092L412.128 76.6651Z" fill="#898484"/>
<path d="M54.3218 0.00264279C67.3974 0.00264279 72.5 4.19599 72.5 12.3676C72.5 20.6468 62.9326 37.7428 57.1921 43.5489C49.857 50.9679 45.3008 52.1216 36.9941 52.1507C23.3159 52.1969 17.0279 52.4023 14.4681 52.2227C5.09947 51.5668 0 47.9573 0 39.7857C0 31.5065 9.56747 14.4106 15.3079 8.60438C22.643 1.18538 30.2969 0.00264279 44.0103 0.00264279C49.1895 -0.00380851 51.7556 0.00371801 54.3218 0.00264279ZM39.9654 13.2127C34.1186 13.2127 32.3167 13.8729 28.7023 17.2061C24.9817 20.9694 19.4538 30.4313 19.4538 34.8397C19.4857 37.0052 21.1908 38.5255 23.2585 38.6169C25.7152 38.7266 29.6782 38.6965 32.0956 38.747C37.9424 38.747 40.1833 38.2804 43.7977 34.9472C47.5183 31.1839 53.0462 20.6135 53.0462 16.2051C53.0143 14.0396 50.9849 13.7815 49.334 13.5493C46.9422 13.2128 42.3827 13.2643 39.9654 13.2127Z" fill="#040A44"/>
<path d="M215.123 0L208.363 12.5329L179.52 12.7322L174.989 20.4739L204.087 20.5858L198.583 30.574L169.602 30.606L165.79 37.7745L194.422 38.3211L187.644 51.0853L138.875 51.1034L138.878 51.0991L127.113 51.1066L131.035 20.8416L113.08 47.2692C111.285 49.8268 108.539 51.1055 105.264 51.1055H94.0689L96.3925 20.6285L78.2263 51.1055H59.4262L93.4352 0.168358H113.08L110.334 27.8748L126.071 4.75056C128.289 1.4471 130.824 0.168358 135.049 0.168358H150.046L145.117 39.5519L163.379 5.7544C165.808 1.27875 167.815 0 172.462 0H215.123Z" fill="#040A44"/>
<path d="M304.054 0C298 0 296.513 0.640875 292.371 6.51581L261.475 51.1066L279.838 51.0585L285.574 42.2995H305.86L305.754 51.0585H323.279L322.748 0H304.054ZM306.072 30.336H293.54L306.391 10.3612L306.072 30.336Z" fill="#040A44"/>
<path d="M252.11 0C256.25 0.00315231 254.433 0.00209179 257.56 0.00314256C270.635 0.00314256 275.737 4.10114 275.738 12.087C275.738 13.6348 275.584 14.2579 275.252 15.8666L256.284 15.8645V15.8361C256.183 13.723 254.223 13.4677 252.572 13.2407C250.18 12.9129 245.62 12.9633 243.203 12.9129C237.356 12.9129 235.554 13.5581 231.94 16.8154C228.219 20.4931 222.691 29.7399 222.691 34.048C222.723 36.1632 224.429 37.6501 226.496 37.7394C228.953 37.8466 231.33 37.8855 233.747 37.9359C239.594 37.9359 242.902 37.9065 246.517 34.6491C247.462 33.7149 250.336 30.3378 250.27 30.1833C250.261 30.1623 239.83 30.2138 239.763 30.2138C239.63 30.2138 245.51 19.8931 245.444 19.8269C245.397 19.7807 255.655 19.8438 255.664 19.8269H274.023L274.019 19.8395C273.648 20.8609 273.227 21.9117 272.765 22.9761C269.476 30.5721 264.149 38.8816 260.43 42.5593C253.095 49.8096 248.538 50.9371 240.232 50.9654C226.554 51.0106 220.266 51.2113 217.706 51.0358C208.337 50.3948 203.238 46.8674 203.238 38.8816C203.238 30.7907 212.805 14.0834 218.546 8.40929C225.881 1.15899 233.535 0.00314256 247.248 0.00314256C250.085 -9.74837e-06 248.465 0.00105077 252.11 0Z" fill="#040A44"/>
<path d="M427.48 38.1842L434.518 38.3095C434.783 38.3095 435 38.5198 435 38.7753V50.6264C435 50.8868 434.783 51.0922 434.518 51.0922H384.663C384.403 51.0922 384.152 50.9519 384.036 50.7115C383.935 50.5011 383.597 48.4675 384.924 47.8164C406.204 41.1946 411.935 36.0905 410.381 27.5954L424.336 16.8814C432.362 25.5117 428.315 35.4544 427.48 38.1842ZM408.245 1.18851L417.129 6.77844C408.293 13.4603 378.306 35.7449 369.788 38.4347C358.68 41.9459 347.996 35.6447 347.996 28.4169C347.996 19.8967 365.77 13.6957 383.062 13.6957C389.67 13.6957 395.81 14.7075 400.875 16.4306L401.164 16.2202C405.761 12.8793 409.861 9.81383 412.648 7.7151C404.193 4.88007 394.001 3.2121 383.067 3.18706H382.826C353.856 3.24716 330.41 14.8328 330.41 29.1231C330.41 43.4185 349.361 54.3229 369.074 50.2407C382.252 48.0618 416.314 21.2642 426.849 12.3083L435 17.8331V1.19852L408.245 1.18851Z" fill="#F15F28"/>
</svg>
