<?xml version="1.0" encoding="UTF-8"?><svg id="Capa_1" xmlns="http://www.w3.org/2000/svg" viewBox="0 0 1920 1080"><defs><style>.cls-1{fill:#fff;}</style></defs><g><g><path class="cls-1" d="m797.21,859.76c-15.06,0-22.71-9.08-22.71-27.16v-36.52h7.74v35.66c0,15.14,3.53,21.04,14.97,21.04s14.97-5.98,14.97-21.04v-35.66h7.65v36.52c0,18.08-7.65,27.16-22.62,27.16Z"/><path class="cls-1" d="m861.1,858.58v-29.53c0-8.41-1.35-11.44-7.74-11.44-3.62,0-8.41,1.44-14.55,4.13v36.84h-7.49v-46.26h7.49v3.61c5.38-2.77,10.26-4.79,15.39-4.79,12.28,0,14.47,6.65,14.47,17.91v29.53h-7.57Z"/><path class="cls-1" d="m906,858.58v-3.1c-2.78,1.93-7.82,4.28-14.72,4.28-8.66,0-13.79-3.87-13.79-13.12v-1.68c0-12.2,8.33-14.3,21.28-14.3h6.9v-3.36c0-8-1.6-9.76-10.85-9.76-5.13,0-9.25.41-14.3,1.01v-5.38c1.35-.5,7.74-2.02,14.89-2.02,15.39,0,17.83,5.64,17.83,16.15v31.29h-7.23Zm-.34-22.2h-6.9c-9.76,0-13.71,1.18-13.71,8.58v2.26c0,5.23,3.2,6.65,7.74,6.65,5.47,0,10.93-2.43,12.87-3.7v-13.79Z"/><path class="cls-1" d="m943.99,838.23v.92c0,8,1.18,14.05,13.96,14.05,5.13,0,11.77-.6,16.15-1.35v6.06c-3.2.84-8.83,1.85-16.48,1.85-16.4,0-21.19-7.31-21.19-22.3v-3.52c0-14.56,6.48-22.8,19.6-22.8s19.85,8.15,19.85,23.72v3.36h-31.88Zm24.05-7.06c0-5.63-1.18-13.46-11.94-13.46s-12.03,7.83-12.03,13.46v.84h23.97v-.84Z"/><path class="cls-1" d="m1036.92,858.58v-30.69c0-6.48,0-10.28-6.9-10.28-3.2,0-7.65,1.53-11.69,3.88.34,2.17.34,4.37.34,6.39v30.69h-7.57v-30.69c0-6.48,0-10.28-6.31-10.28-4.04,0-8.66,2.11-12.03,4.04v36.93h-7.49v-46.26h7.49v3.61c3.78-2.77,8.58-4.79,13.79-4.79s8.41,1.94,10.18,4.97c5.38-3.55,10.09-4.97,14.3-4.97,13.46,0,13.46,9.59,13.46,16.74v30.69h-7.57Z"/><path class="cls-1" d="m1073.4,859.76c-3.11,0-7.49-.58-10.35-1.35v17.83h-7.49v-63.92h7.23v3.12c4.12-2.87,9-4.3,13.46-4.3,10.6,0,16.74,5.98,16.74,21.53v4.54c0,17.83-8.49,22.54-19.6,22.54Zm12.11-27.08c0-11.36-3.53-14.88-10.43-14.88-3.62,0-6.56.75-12.03,3.44v30.87c3.78.75,7.23,1.25,10.35,1.25,7.4,0,12.11-2.6,12.11-16.15v-4.54Z"/><path class="cls-1" d="m1109.88,821.83v36.75h-7.49v-46.26h7.4v3.7c4.37-3.46,10.01-4.88,16.48-4.88v6.73c-6.06,0-12.87,1.68-16.4,3.96Z"/><path class="cls-1" d="m1136.78,838.23v.92c0,8,1.18,14.05,13.96,14.05,5.13,0,11.77-.6,16.15-1.35v6.06c-3.2.84-8.83,1.85-16.48,1.85-16.4,0-21.19-7.31-21.19-22.3v-3.52c0-14.56,6.48-22.8,19.6-22.8s19.85,8.15,19.85,23.72v3.36h-31.88Zm24.05-7.06c0-5.63-1.18-13.46-11.94-13.46s-12.03,7.83-12.03,13.46v.84h23.97v-.84Z"/><path class="cls-1" d="m1191.52,859.76c-6.48,0-13.63-1.35-15.14-1.85v-5.8c2.78.24,9.34,1.16,14.89,1.16,7.91,0,9.92-2.17,9.92-6.21s-1.43-5.38-9.34-8.75l-3.36-1.44c-8.92-3.79-12.7-7.57-12.7-14.22,0-7.74,5.13-11.51,16.74-11.51,6.22,0,12.28,1.09,13.96,1.68v5.64c-4.88-.52-10.43-.86-13.63-.86-6.73,0-9.5.86-9.5,5.05,0,3.62,1.51,5.14,8.07,8l3.36,1.42c10.77,4.8,13.96,7.66,13.96,14.8,0,6.65-3.53,12.88-17.24,12.88Z"/><path class="cls-1" d="m1243.14,858.58v-3.1c-2.78,1.93-7.82,4.28-14.72,4.28-8.66,0-13.79-3.87-13.79-13.12v-1.68c0-12.2,8.33-14.3,21.28-14.3h6.9v-3.36c0-8-1.6-9.76-10.85-9.76-5.13,0-9.25.41-14.3,1.01v-5.38c1.35-.5,7.74-2.02,14.89-2.02,15.39,0,17.83,5.64,17.83,16.15v31.29h-7.23Zm-.34-22.2h-6.9c-9.76,0-13.71,1.18-13.71,8.58v2.26c0,5.23,3.2,6.65,7.74,6.65,5.47,0,10.93-2.43,12.87-3.7v-13.79Z"/></g><g><path class="cls-1" d="m1300.56,837.61v22.08h-9.66v-69.28h25.15c15.36,0,22.74,7.49,22.74,22.88s-7.38,24.32-22.74,24.32h-15.49Zm15.49-9.28c8.88,0,12.86-5.78,12.86-15.04s-3.98-13.61-12.86-13.61h-15.49v28.65h15.49Z"/><path class="cls-1" d="m1378.01,834.74h-17.46v24.96h-9.68v-69.28h25.84c15.27,0,22.66,6.4,22.66,21.67,0,10.59-3.79,16.87-11.77,20.05l12.16,27.56h-10.69l-11.07-24.96Zm-1.29-35.15h-16.16v25.97h16.25c9.4,0,12.59-5.3,12.59-13.29,0-8.57-4.1-12.68-12.68-12.68Z"/><path class="cls-1" d="m1409.25,825.44c0-22.95,6.18-36.13,27.55-36.13s27.65,13.08,27.65,36.13-6.2,35.34-27.65,35.34-27.55-12.19-27.55-35.34Zm45.11,0c0-17.16-3.31-26.74-17.57-26.74s-17.58,9.49-17.58,26.74,3.2,25.96,17.58,25.96,17.57-8.19,17.57-25.96Z"/><path class="cls-1" d="m1477.51,790.41h16.28l17.86,55.51,17.95-55.51h16.07v69.28h-9.68v-57.5h-1.52l-17.73,54.89h-10.27l-17.79-54.89h-1.49v57.5h-9.67v-69.28Z"/><path class="cls-1" d="m1561.93,790.41h9.68v69.28h-9.68v-69.28Z"/><path class="cls-1" d="m1614.92,823.95h19.27v34.43s-14.18,2.41-22.65,2.41c-21.17,0-27.15-12.97-27.15-35.74s6.29-35.73,26.84-35.73c10.48,0,22.96,2.8,22.96,2.8l-.4,8.49s-12.17-1.79-21.25-1.79c-14.58,0-18.17,7.6-18.17,26.24s3.1,26.35,17.86,26.35c5.3,0,12.07-1.1,12.38-1.1v-17.65h-9.69v-8.7Z"/><path class="cls-1" d="m1660.23,790.41h19.85l17.56,69.17h-9.78l-4.49-15.46h-26.94l-4.3,15.57h-9.69l17.78-69.28Zm-1.7,44.42h22.86l-8.9-35.43h-4.88l-9.08,35.43Z"/><path class="cls-1" d="m1747.23,800.29s-13.97-1.69-19.76-1.69c-8.98,0-13.57,2.99-13.57,9.68,0,7.41,4.09,8.99,15.86,11.88,14.1,3.69,19.66,7.4,19.66,19.56,0,14.67-8.96,20.95-22.94,20.95-7.49,0-21.07-2.3-21.07-2.3l1-8.78s12.88,1.69,19.96,1.69c8.99,0,13.37-3.09,13.37-11.26,0-6.58-3.49-8.68-14.27-11.18-14.67-3.4-21.35-7.49-21.35-20.35s8.97-19.27,23.34-19.27c7.71,0,20.58,2.3,20.58,2.3l-.82,8.77Z"/></g></g><g><g><path class="cls-1" d="m151.24,556.32h118.39v22.04h-47.34v142.4h-23.21v-142.4h-47.83v-22.04Z"/><path class="cls-1" d="m352.34,661.47h-41.44v59.29h-22.99v-164.44h61.34c36.23,0,53.74,15.23,53.74,51.43,0,25.12-8.95,40.02-27.91,47.61l28.91,65.41h-25.35l-26.29-59.29Zm-3.09-83.32h-38.35v61.6h38.58c22.26,0,29.83-12.58,29.83-31.54,0-20.37-9.71-30.06-30.06-30.06Z"/><path class="cls-1" d="m463.42,556.32h47.14l41.61,164.19h-23.16l-10.65-36.72h-63.96l-10.15,36.98h-23.03l42.19-164.44Zm-4.06,105.43h54.26l-21.08-84.06h-11.59l-21.59,84.06Z"/><path class="cls-1" d="m578,556.32h38.86l58.79,136.43h4.74v-136.43h22.96v164.44h-37.91l-59.7-136.48h-4.73v136.48h-23.02v-164.44Z"/><path class="cls-1" d="m834.51,579.8s-33.11-4.02-46.85-4.02c-21.37,0-32.24,7.14-32.24,22.98,0,17.53,9.75,21.31,37.67,28.16,33.44,8.76,46.65,17.56,46.65,46.43,0,34.82-21.32,49.73-54.46,49.73-17.76,0-50.01-5.43-50.01-5.43l2.39-20.82s30.58,3.98,47.39,3.98c21.28,0,31.74-7.32,31.74-26.75,0-15.65-8.3-20.59-33.85-26.51-34.88-8.04-50.7-17.76-50.7-48.31s21.3-45.72,55.43-45.72c18.24,0,48.78,5.45,48.78,5.45l-1.94,20.84Z"/><path class="cls-1" d="m868.66,556.32h38.58l42.42,131.72,42.69-131.72h38.06v164.44h-22.92v-136.48h-3.6l-42.19,130.31h-24.36l-42.17-130.31h-3.56v136.48h-22.96v-164.44Z"/><path class="cls-1" d="m1069.75,556.32h101.12v22.04h-78.35v49.31h64.13v21.55h-64.13v49.51h78.35v22.04h-101.12v-164.44Z"/><path class="cls-1" d="m1181.56,556.32h118.41v22.04h-47.41v142.4h-23.19v-142.4h-47.81v-22.04Z"/><path class="cls-1" d="m1346.85,556.32h47.12l41.67,164.19h-23.16l-10.68-36.72h-63.96l-10.2,36.98h-22.96l42.16-164.44Zm-4.03,105.43h54.23l-21.05-84.06h-11.64l-21.54,84.06Z"/><path class="cls-1" d="m1461.5,556.32h38.82l58.73,136.43h4.77v-136.43h22.99v164.44h-37.91l-59.71-136.48h-4.74v136.48h-22.94v-164.44Z"/><path class="cls-1" d="m1617.8,639.51c0-54.51,14.68-85.74,65.35-85.74s65.62,31.04,65.62,85.74-14.7,83.86-65.62,83.86-65.35-28.88-65.35-83.86Zm107.05,0c0-40.74-7.83-63.49-41.69-63.49s-41.69,22.49-41.69,63.49,7.59,61.57,41.69,61.57,41.69-19.43,41.69-61.57Z"/></g><g><path class="cls-1" d="m1619.95,381.97s52.86-47.66,119.13-47.97v47.84l-119.13.13Z"/><path class="cls-1" d="m1090.75,441.31c30.04,15.92,59.18,31.32,97.13,42.03l-.25-.13c-5.89-2.59-11.63-5.4-17.22-8.32l-1.11-.59c-5.32-2.81-10.47-5.74-15.52-8.79l-1.23-.74c-5.25-3.2-10.36-6.51-15.32-9.89l-.24-.18c-4.92-3.37-9.74-6.82-14.41-10.33l-1.34-1.02c-4.47-3.38-8.82-6.8-13.11-10.27l-1-.81c-4.4-3.57-8.69-7.17-12.95-10.8l-1.67-1.4c-3.78-3.24-7.48-6.48-11.16-9.72-.96-.85-1.92-1.7-2.88-2.55-2.7-2.39-5.38-4.78-8.02-7.13-1.09-.96-2.17-1.94-3.22-2.88-46.1-41.21-85.92-76.79-143.62-76.79-2.26,0-4.56.06-6.86.15l-2.34.18c-1.52.08-3.06.18-4.6.32-.98.12-1.94.23-2.92.35-1.38.15-2.75.29-4.13.51-1.03.14-2.12.31-3.19.49-1.32.22-2.63.43-3.93.65-1.12.21-2.24.47-3.37.69-1.3.27-2.59.53-3.89.83-1.14.25-2.32.55-3.48.83-1.3.33-2.61.65-3.93,1.02-1.16.3-2.34.65-3.51,1-1.32.39-2.68.78-4,1.2-1.21.36-2.37.76-3.57,1.14l-2.53.87v50.8c113.3,1.07,169.22,30.68,223.37,59.29"/><path class="cls-1" d="m1323.21,225.91s-2.99-1.18-8.31-2.77c-19.18-6.53-72-22-141.43-22-114.14,0-207.68,62.49-230.39,79.1-4,2.74-6.27,4.38-6.27,4.38-.54.83.58.42.58.42,3.55-1.56,7.23-3.1,11.01-4.6,19.07-6.81,62.93-20.17,111.91-19.43,0,0,92.62-52.99,250.78-36.36,3.97.55,7.88,1.15,11.66,1.82,0,0,1.18.14.45-.55Z"/><path class="cls-1" d="m1646.57,323.37c-116.29,0-148.07,21.02-250.78,21.02-139.92,0-217.82-73.7-332.5-73.7-66.86,0-110.95,16.47-123.52,21.84-2.43.95-3.97,1.52-3.97,1.52-.25.3.22.25.22.25,1.81-.37,3.71-.73,5.63-1.05h0c10.03-1.72,32-5.05,50.88-5.05,144.11,0,200.26,97.49,339.62,97.49,100.65,0,205-53.55,314.18-53.55,12.48,0,38.21,3.4,38.21,3.4l28.95-5.63s-12.1-6.56-66.93-6.56Z"/><path class="cls-1" d="m1604.61,317.63s-.58-.11-1.58-.23c-59.54-7.32-99.76-21.15-147.85-38.71-40.6-14.81-78.63-34.08-121.56-41.45-81.8-14.05-176.03-8.4-253.12,24.65,5.94.48,11.86,1.1,17.76,1.88,85.34,10.19,161.98,55.05,246.85,67.54,86.76,12.79,167.23-13.77,258.15-13.53l.04-.02c.42,0,.81-.02,1.23-.02,0,0,.25-.02.07-.13Z"/><path class="cls-1" d="m1672.75,340.23s-3.44-.03-7.73-.03c-6.46-.24-15.37-.53-20.43-.53-112.25,0-176.52,55.7-312.66,55.7-31.82,0-68.36-8-68.36-8,0,0,68.39,40.98,155.28,40.98,75.84,0,136.94-57.81,237.25-83.71,1.88-.49,6.55-1.64,10.48-2.6,2.03-.46,4.04-.9,6.01-1.29,0,0,.67-.27.14-.51Z"/><path class="cls-1" d="m1643.41,356.38l-6.74,2.14c-39.68,13.31-75.62,33.91-113.18,52.19-35.18,17.11-72.76,28.05-107.94,28.36-42.07.36-82.21-10.27-125.38-29.32-117.67-51.9-242.43-145.63-376.4-99.85-4.31,1.27-7.12,2.05-7.12,2.05-.71.55.36.52.36.52,3.22-.3,6.57-.52,9.96-.71,75.42-2.63,128.24,55.43,181.9,101.41,59.81,51.25,127.32,84.73,207.56,84.73,74.55,0,145.92-18.03,209.89-56.5,41.41-24.92,79.06-55.46,119.77-80.26,2.46-1.47,4.89-2.88,7.3-4.18,0,0,.8-.51.02-.58Z"/></g></g></svg>